<svg xmlns="http://www.w3.org/2000/svg" viewBox="0 0 1200 900">
<rect width="1200" height="900" fill="#f6f2e8"/>
<text x="600.0" y="38" text-anchor="middle" font-family="monospace" font-size="22" font-weight="700">REL Emission Curves (250 Days)</text>
<rect x="60" y="80" width="1080" height="320" fill="none" stroke="#222" stroke-width="1"/>
<polyline fill="none" stroke="#8b1c1c" stroke-width="2" points="60.00,80.00 64.34,83.50 68.67,86.81 73.01,89.97 77.35,93.01 81.69,95.94 86.02,98.78 90.36,101.53 94.70,104.20 99.04,106.80 103.37,109.33 107.71,111.80 112.05,114.21 116.39,116.56 120.72,118.87 125.06,121.12 129.40,123.33 133.73,125.49 138.07,127.61 142.41,129.69 146.75,131.73 151.08,133.74 155.42,135.71 159.76,137.65 164.10,139.55 168.43,141.43 172.77,143.28 177.11,145.10 181.45,146.89 185.78,148.66 190.12,150.40 194.46,152.12 198.80,153.81 203.13,155.49 207.47,157.14 211.81,158.78 216.14,160.39 220.48,161.98 224.82,163.56 229.16,165.12 233.49,166.67 237.83,168.19 242.17,169.71 246.51,171.20 250.84,172.69 255.18,174.16 259.52,175.61 263.86,177.05 268.19,178.48 272.53,179.90 276.87,181.31 281.20,182.71 285.54,184.09 289.88,185.47 294.22,186.83 298.55,188.19 302.89,189.53 307.23,190.87 311.57,192.20 315.90,193.52 320.24,194.83 324.58,196.14 328.92,197.44 333.25,198.73 337.59,200.01 341.93,201.28 346.27,202.55 350.60,203.82 354.94,205.08 359.28,206.33 363.61,207.57 367.95,208.82 372.29,210.05 376.63,211.28 380.96,212.51 385.30,213.73 389.64,214.95 393.98,216.16 398.31,217.37 402.65,218.57 406.99,219.77 411.33,220.97 415.66,222.16 420.00,223.35 424.34,224.53 428.67,225.72 433.01,226.90 437.35,228.07 441.69,229.24 446.02,230.42 450.36,231.58 454.70,232.75 459.04,233.91 463.37,235.07 467.71,236.23 472.05,237.38 476.39,238.54 480.72,239.69 485.06,240.84 489.40,241.98 493.73,243.13 498.07,244.27 502.41,245.41 506.75,246.55 511.08,247.69 515.42,248.82 519.76,249.96 524.10,251.09 528.43,252.22 532.77,253.35 537.11,254.48 541.45,255.60 545.78,256.73 550.12,257.85 554.46,258.98 558.80,260.10 563.13,261.22 567.47,262.34 571.81,263.45 576.14,264.57 580.48,265.69 584.82,266.80 589.16,267.91 593.49,269.03 597.83,270.14 602.17,271.25 606.51,272.36 610.84,273.46 615.18,274.57 619.52,275.68 623.86,276.78 628.19,277.89 632.53,278.99 636.87,280.09 641.20,281.19 645.54,282.29 649.88,283.39 654.22,284.49 658.55,285.59 662.89,286.69 667.23,287.78 671.57,288.88 675.90,289.97 680.24,291.06 684.58,292.16 688.92,293.25 693.25,294.34 697.59,295.43 701.93,296.52 706.27,297.60 710.60,298.69 714.94,299.78 719.28,300.86 723.61,301.95 727.95,303.03 732.29,304.11 736.63,305.19 740.96,306.27 745.30,307.35 749.64,308.43 753.98,309.51 758.31,310.59 762.65,311.66 766.99,312.74 771.33,313.81 775.66,314.88 780.00,315.95 784.34,317.02 788.67,318.09 793.01,319.16 797.35,320.23 801.69,321.29 806.02,322.36 810.36,323.42 814.70,324.49 819.04,325.55 823.37,326.61 827.71,327.67 832.05,328.73 836.39,329.78 840.72,330.84 845.06,331.89 849.40,332.95 853.73,334.00 858.07,335.05 862.41,336.10 866.75,337.15 871.08,338.19 875.42,339.24 879.76,340.28 884.10,341.33 888.43,342.37 892.77,343.41 897.11,344.45 901.45,345.48 905.78,346.52 910.12,347.55 914.46,348.59 918.80,349.62 923.13,350.65 927.47,351.68 931.81,352.71 936.14,353.73 940.48,354.76 944.82,355.78 949.16,356.80 953.49,357.82 957.83,358.84 962.17,359.85 966.51,360.87 970.84,361.88 975.18,362.89 979.52,363.90 983.86,364.91 988.19,365.92 992.53,366.92 996.87,367.93 1001.20,368.93 1005.54,369.93 1009.88,370.93 1014.22,371.92 1018.55,372.92 1022.89,373.91 1027.23,374.90 1031.57,375.89 1035.90,376.88 1040.24,377.86 1044.58,378.85 1048.92,379.83 1053.25,380.81 1057.59,381.79 1061.93,382.76 1066.27,383.74 1070.60,384.71 1074.94,385.68 1079.28,386.65 1083.61,387.62 1087.95,388.58 1092.29,389.54 1096.63,390.50 1100.96,391.46 1105.30,392.42 1109.64,393.37 1113.98,394.33 1118.31,395.28 1122.65,396.23 1126.99,397.17 1131.33,398.12 1135.66,399.06 1140.00,400.00"/>
<text x="70" y="100" font-family="monospace" font-size="14" fill="#8b1c1c">Expected Daily Emission</text>
<rect x="60" y="500" width="1080" height="320" fill="none" stroke="#222" stroke-width="1"/>
<polyline fill="none" stroke="#1f4f99" stroke-width="2" points="60.00,820.00 64.34,818.08 68.67,816.17 73.01,814.27 77.35,812.38 81.69,810.50 86.02,808.63 90.36,806.77 94.70,804.92 99.04,803.08 103.37,801.25 107.71,799.43 112.05,797.62 116.39,795.81 120.72,794.01 125.06,792.22 129.40,790.44 133.73,788.66 138.07,786.90 142.41,785.14 146.75,783.38 151.08,781.64 155.42,779.90 159.76,778.17 164.10,776.44 168.43,774.72 172.77,773.01 177.11,771.30 181.45,769.60 185.78,767.91 190.12,766.22 194.46,764.54 198.80,762.87 203.13,761.20 207.47,759.53 211.81,757.88 216.14,756.22 220.48,754.58 224.82,752.94 229.16,751.30 233.49,749.67 237.83,748.04 242.17,746.43 246.51,744.81 250.84,743.20 255.18,741.60 259.52,740.00 263.86,738.40 268.19,736.82 272.53,735.23 276.87,733.65 281.20,732.08 285.54,730.51 289.88,728.95 294.22,727.39 298.55,725.83 302.89,724.28 307.23,722.74 311.57,721.20 315.90,719.66 320.24,718.13 324.58,716.60 328.92,715.08 333.25,713.56 337.59,712.05 341.93,710.54 346.27,709.04 350.60,707.54 354.94,706.04 359.28,704.55 363.61,703.06 367.95,701.58 372.29,700.10 376.63,698.63 380.96,697.16 385.30,695.69 389.64,694.23 393.98,692.78 398.31,691.32 402.65,689.88 406.99,688.43 411.33,686.99 415.66,685.56 420.00,684.12 424.34,682.70 428.67,681.27 433.01,679.86 437.35,678.44 441.69,677.03 446.02,675.62 450.36,674.22 454.70,672.82 459.04,671.43 463.37,670.04 467.71,668.65 472.05,667.27 476.39,665.89 480.72,664.52 485.06,663.15 489.40,661.78 493.73,660.42 498.07,659.06 502.41,657.71 506.75,656.36 511.08,655.01 515.42,653.67 519.76,652.33 524.10,651.00 528.43,649.67 532.77,648.34 537.11,647.02 541.45,645.70 545.78,644.39 550.12,643.08 554.46,641.77 558.80,640.47 563.13,639.17 567.47,637.88 571.81,636.58 576.14,635.30 580.48,634.02 584.82,632.74 589.16,631.46 593.49,630.19 597.83,628.92 602.17,627.66 606.51,626.40 610.84,625.14 615.18,623.89 619.52,622.65 623.86,621.40 628.19,620.16 632.53,618.93 636.87,617.69 641.20,616.46 645.54,615.24 649.88,614.02 654.22,612.80 658.55,611.59 662.89,610.38 667.23,609.18 671.57,607.97 675.90,606.78 680.24,605.58 684.58,604.39 688.92,603.21 693.25,602.02 697.59,600.85 701.93,599.67 706.27,598.50 710.60,597.33 714.94,596.17 719.28,595.01 723.61,593.86 727.95,592.70 732.29,591.56 736.63,590.41 740.96,589.27 745.30,588.14 749.64,587.00 753.98,585.87 758.31,584.75 762.65,583.63 766.99,582.51 771.33,581.39 775.66,580.28 780.00,579.18 784.34,578.08 788.67,576.98 793.01,575.88 797.35,574.79 801.69,573.70 806.02,572.62 810.36,571.54 814.70,570.46 819.04,569.39 823.37,568.32 827.71,567.26 832.05,566.19 836.39,565.14 840.72,564.08 845.06,563.03 849.40,561.98 853.73,560.94 858.07,559.90 862.41,558.87 866.75,557.83 871.08,556.81 875.42,555.78 879.76,554.76 884.10,553.74 888.43,552.73 892.77,551.72 897.11,550.71 901.45,549.71 905.78,548.71 910.12,547.71 914.46,546.72 918.80,545.73 923.13,544.75 927.47,543.77 931.81,542.79 936.14,541.82 940.48,540.85 944.82,539.88 949.16,538.92 953.49,537.96 957.83,537.00 962.17,536.05 966.51,535.10 970.84,534.16 975.18,533.21 979.52,532.28 983.86,531.34 988.19,530.41 992.53,529.48 996.87,528.56 1001.20,527.64 1005.54,526.72 1009.88,525.81 1014.22,524.90 1018.55,523.99 1022.89,523.09 1027.23,522.19 1031.57,521.29 1035.90,520.40 1040.24,519.51 1044.58,518.63 1048.92,517.74 1053.25,516.86 1057.59,515.99 1061.93,515.12 1066.27,514.25 1070.60,513.38 1074.94,512.52 1079.28,511.66 1083.61,510.81 1087.95,509.96 1092.29,509.11 1096.63,508.26 1100.96,507.42 1105.30,506.58 1109.64,505.75 1113.98,504.92 1118.31,504.09 1122.65,503.27 1126.99,502.44 1131.33,501.63 1135.66,500.81 1140.00,500.00"/>
<text x="70" y="520" font-family="monospace" font-size="14" fill="#1f4f99">Cumulative Expected Emission</text>
<text x="600.0" y="884" text-anchor="middle" font-family="monospace" font-size="12" fill="#333">Source: relWhitepaper.ts simulateExpectedIssuance()</text>
</svg>