<svg xmlns="http://www.w3.org/2000/svg" viewBox="0 0 1280 980">
<rect width="1280" height="980" fill="#f6f2e8"/>
<text x="640.0" y="36" text-anchor="middle" font-family="monospace" font-size="22" font-weight="700">REL Stress Curves (Anomalies + Whales + Buyers)</text>
<rect x="60" y="76" width="1160" height="214" fill="none" stroke="#222" stroke-width="1"/>
<text x="68" y="94" font-family="monospace" font-size="13" fill="#222">Scenario A</text>
<polyline fill="none" stroke="#555" stroke-width="1.5" points="60.00,88.00 64.66,90.00 69.32,91.90 73.98,93.71 78.63,95.45 83.29,97.12 87.95,98.75 92.61,100.32 97.27,101.85 101.93,103.34 106.59,104.79 111.24,106.20 115.90,107.58 120.56,108.93 125.22,110.24 129.88,201.77 134.54,112.80 139.20,114.03 143.86,115.25 148.51,116.44 153.17,117.61 157.83,118.75 162.49,119.88 167.15,120.99 171.81,122.08 176.47,123.16 181.12,124.21 185.78,125.26 190.44,126.28 195.10,127.29 199.76,128.29 204.42,129.27 209.08,110.21 213.73,131.20 218.39,132.15 223.05,133.08 227.71,134.01 232.37,134.92 237.03,135.82 241.69,136.72 246.35,137.60 251.00,138.47 255.66,139.34 260.32,140.20 264.98,141.05 269.64,141.89 274.30,142.72 278.96,143.55 283.61,144.36 288.27,145.18 292.93,145.98 297.59,146.78 302.25,147.57 306.91,148.36 311.57,149.14 316.22,149.92 320.88,150.69 325.54,151.45 330.20,152.21 334.86,152.97 339.52,153.72 344.18,154.47 348.84,155.21 353.49,155.95 358.15,179.21 362.81,157.41 367.47,158.14 372.13,158.86 376.79,159.58 381.45,160.30 386.10,161.01 390.76,161.72 395.42,162.43 400.08,190.58 404.74,163.84 409.40,164.53 414.06,165.23 418.71,165.92 423.37,166.62 428.03,167.31 432.69,167.99 437.35,168.68 442.01,169.36 446.67,170.04 451.33,170.72 455.98,171.39 460.64,172.07 465.30,205.57 469.96,173.41 474.62,174.08 479.28,174.75 483.94,175.42 488.59,176.08 493.25,176.75 497.91,177.41 502.57,178.07 507.23,178.73 511.89,179.39 516.55,180.05 521.20,149.51 525.86,181.36 530.52,182.01 535.18,182.67 539.84,183.32 544.50,183.97 549.16,184.62 553.82,185.27 558.47,185.92 563.13,186.56 567.79,178.59 572.45,187.86 577.11,188.50 581.77,189.14 586.43,189.79 591.08,190.43 595.74,191.07 600.40,191.71 605.06,192.35 609.72,192.99 614.38,193.63 619.04,194.27 623.69,194.91 628.35,195.55 633.01,196.18 637.67,196.82 642.33,197.45 646.99,198.09 651.65,198.72 656.31,153.54 660.96,199.99 665.62,200.62 670.28,201.25 674.94,201.88 679.60,202.51 684.26,203.15 688.92,203.78 693.57,222.81 698.23,205.03 702.89,205.66 707.55,206.29 712.21,206.92 716.87,207.54 721.53,208.17 726.18,208.79 730.84,209.42 735.50,210.04 740.16,210.67 744.82,211.29 749.48,211.92 754.14,212.54 758.80,213.16 763.45,213.78 768.11,214.40 772.77,215.02 777.43,205.47 782.09,216.26 786.75,216.88 791.41,217.50 796.06,218.12 800.72,218.73 805.38,219.35 810.04,219.97 814.70,220.58 819.36,221.20 824.02,221.81 828.67,222.43 833.33,223.04 837.99,223.65 842.65,224.26 847.31,224.87 851.97,245.41 856.63,226.10 861.29,226.71 865.94,227.31 870.60,227.92 875.26,228.53 879.92,229.14 884.58,229.74 889.24,230.35 893.90,230.95 898.55,231.56 903.21,232.16 907.87,232.76 912.53,233.37 917.19,233.97 921.85,234.57 926.51,235.17 931.16,235.77 935.82,236.37 940.48,236.96 945.14,237.56 949.80,238.16 954.46,238.75 959.12,239.35 963.78,239.94 968.43,240.53 973.09,241.12 977.75,241.72 982.41,242.31 987.07,242.90 991.73,243.49 996.39,244.07 1001.04,244.66 1005.70,245.25 1010.36,245.83 1015.02,246.42 1019.68,247.00 1024.34,247.58 1029.00,248.16 1033.65,248.75 1038.31,249.32 1042.97,249.90 1047.63,250.48 1052.29,251.06 1056.95,251.64 1061.61,252.21 1066.27,286.00 1070.92,253.36 1075.58,253.93 1080.24,254.50 1084.90,255.07 1089.56,253.59 1094.22,256.21 1098.88,256.78 1103.53,257.34 1108.19,257.91 1112.85,258.47 1117.51,259.03 1122.17,259.60 1126.83,260.16 1131.49,274.31 1136.14,261.28 1140.80,261.83 1145.46,262.39 1150.12,262.95 1154.78,263.50 1159.44,264.05 1164.10,264.60 1168.76,265.16 1173.41,265.71 1178.07,266.25 1182.73,266.80 1187.39,267.35 1192.05,267.89 1196.71,268.44 1201.37,268.98 1206.02,269.52 1210.68,270.06 1215.34,270.60 1220.00,271.14"/>
<polyline fill="none" stroke="#2f7d32" stroke-width="2" points="60.00,286.00 64.66,285.49 69.32,284.89 73.98,284.21 78.63,283.51 83.29,282.79 87.95,282.03 92.61,281.22 97.27,280.37 101.93,279.49 106.59,278.57 111.24,277.61 115.90,276.65 120.56,275.66 125.22,274.66 129.88,273.97 134.54,272.97 139.20,271.96 143.86,270.94 148.51,269.91 153.17,268.87 157.83,267.83 162.49,266.78 167.15,265.71 171.81,264.63 176.47,263.53 181.12,262.44 185.78,261.36 190.44,260.26 195.10,259.15 199.76,258.06 204.42,256.96 209.08,255.79 213.73,254.71 218.39,253.62 223.05,252.54 227.71,251.45 232.37,250.37 237.03,249.28 241.69,248.20 246.35,247.12 251.00,246.05 255.66,244.97 260.32,243.90 264.98,242.83 269.64,241.78 274.30,240.72 278.96,239.67 283.61,238.62 288.27,237.57 292.93,236.53 297.59,235.49 302.25,234.45 306.91,233.41 311.57,232.38 316.22,231.35 320.88,230.33 325.54,229.31 330.20,228.29 334.86,227.27 339.52,226.26 344.18,225.25 348.84,224.24 353.49,223.23 358.15,222.32 362.81,221.31 367.47,220.31 372.13,219.32 376.79,218.32 381.45,217.33 386.10,216.34 390.76,215.36 395.42,214.38 400.08,213.51 404.74,212.53 409.40,211.56 414.06,210.59 418.71,209.62 423.37,208.65 428.03,207.68 432.69,206.73 437.35,205.77 442.01,204.82 446.67,203.87 451.33,202.92 455.98,201.98 460.64,201.04 465.30,200.23 469.96,199.30 474.62,198.37 479.28,197.44 483.94,196.51 488.59,195.58 493.25,194.66 497.91,193.74 502.57,192.83 507.23,191.92 511.89,191.01 516.55,190.11 521.20,189.08 525.86,188.19 530.52,187.29 535.18,186.40 539.84,185.52 544.50,184.64 549.16,183.76 553.82,182.89 558.47,182.01 563.13,181.15 567.79,180.25 572.45,179.38 577.11,178.52 581.77,177.66 586.43,176.81 591.08,175.96 595.74,175.12 600.40,174.27 605.06,173.43 609.72,172.60 614.38,171.76 619.04,170.93 623.69,170.11 628.35,169.28 633.01,168.46 637.67,167.64 642.33,166.83 646.99,166.01 651.65,165.20 656.31,164.22 660.96,163.41 665.62,162.62 670.28,161.82 674.94,161.02 679.60,160.23 684.26,159.44 688.92,158.66 693.57,157.94 698.23,157.16 702.89,156.39 707.55,155.61 712.21,154.84 716.87,154.08 721.53,153.31 726.18,152.55 730.84,151.80 735.50,151.04 740.16,150.29 744.82,149.55 749.48,148.80 754.14,148.06 758.80,147.32 763.45,146.59 768.11,145.85 772.77,145.12 777.43,144.35 782.09,143.62 786.75,142.90 791.41,142.18 796.06,141.46 800.72,140.75 805.38,140.04 810.04,139.33 814.70,138.63 819.36,137.93 824.02,137.23 828.67,136.53 833.33,135.84 837.99,135.15 842.65,134.47 847.31,133.78 851.97,133.18 856.63,132.50 861.29,131.83 865.94,131.16 870.60,130.49 875.26,129.82 879.92,129.16 884.58,128.50 889.24,127.84 893.90,127.18 898.55,126.53 903.21,125.88 907.87,125.23 912.53,124.59 917.19,123.95 921.85,123.31 926.51,122.67 931.16,122.04 935.82,121.41 940.48,120.78 945.14,120.16 949.80,119.54 954.46,118.92 959.12,118.30 963.78,117.69 968.43,117.08 973.09,116.47 977.75,115.87 982.41,115.27 987.07,114.67 991.73,114.07 996.39,113.48 1001.04,112.89 1005.70,112.30 1010.36,111.71 1015.02,111.13 1019.68,110.54 1024.34,109.96 1029.00,109.39 1033.65,108.82 1038.31,108.24 1042.97,107.68 1047.63,107.11 1052.29,106.54 1056.95,105.98 1061.61,105.42 1066.27,104.99 1070.92,104.44 1075.58,103.89 1080.24,103.34 1084.90,102.79 1089.56,102.24 1094.22,101.70 1098.88,101.16 1103.53,100.62 1108.19,100.09 1112.85,99.56 1117.51,99.03 1122.17,98.50 1126.83,97.98 1131.49,97.51 1136.14,96.99 1140.80,96.47 1145.46,95.95 1150.12,95.44 1154.78,94.93 1159.44,94.42 1164.10,93.91 1168.76,93.40 1173.41,92.90 1178.07,92.40 1182.73,91.90 1187.39,91.41 1192.05,90.91 1196.71,90.42 1201.37,89.93 1206.02,89.45 1210.68,88.96 1215.34,88.48 1220.00,88.00"/>
<polyline fill="none" stroke="#6a1b9a" stroke-width="2" points="60.00,286.00 64.66,285.75 69.32,285.43 73.98,285.07 78.63,284.69 83.29,284.26 87.95,283.81 92.61,283.30 97.27,282.79 101.93,282.25 106.59,281.70 111.24,281.11 115.90,280.50 120.56,279.88 125.22,279.26 129.88,278.82 134.54,278.18 139.20,277.54 143.86,276.88 148.51,276.23 153.17,275.56 157.83,274.88 162.49,274.20 167.15,273.50 171.81,272.81 176.47,272.09 181.12,271.38 185.78,270.65 190.44,269.92 195.10,269.17 199.76,268.42 204.42,267.67 209.08,266.86 213.73,266.09 218.39,265.32 223.05,264.55 227.71,263.77 232.37,262.99 237.03,262.20 241.69,261.42 246.35,260.62 251.00,259.82 255.66,259.02 260.32,258.22 264.98,257.41 269.64,256.60 274.30,255.79 278.96,254.97 283.61,254.14 288.27,253.32 292.93,252.49 297.59,251.66 302.25,250.82 306.91,249.99 311.57,249.15 316.22,248.31 320.88,247.46 325.54,246.62 330.20,245.77 334.86,244.92 339.52,244.07 344.18,243.21 348.84,242.36 353.49,241.50 358.15,240.71 362.81,239.85 367.47,238.99 372.13,238.12 376.79,237.25 381.45,236.38 386.10,235.51 390.76,234.64 395.42,233.76 400.08,232.99 404.74,232.11 409.40,231.23 414.06,230.35 418.71,229.47 423.37,228.59 428.03,227.71 432.69,226.82 437.35,225.94 442.01,225.06 446.67,224.17 451.33,223.29 455.98,222.41 460.64,221.52 465.30,220.76 469.96,219.88 474.62,218.99 479.28,218.10 483.94,217.21 488.59,216.32 493.25,215.43 497.91,214.54 502.57,213.65 507.23,212.77 511.89,211.88 516.55,210.98 521.20,209.97 525.86,209.08 530.52,208.19 535.18,207.30 539.84,206.41 544.50,205.52 549.16,204.63 553.82,203.74 558.47,202.85 563.13,201.97 567.79,201.04 572.45,200.15 577.11,199.26 581.77,198.37 586.43,197.49 591.08,196.60 595.74,195.71 600.40,194.83 605.06,193.94 609.72,193.05 614.38,192.17 619.04,191.28 623.69,190.40 628.35,189.52 633.01,188.63 637.67,187.75 642.33,186.87 646.99,185.99 651.65,185.11 656.31,184.03 660.96,183.15 665.62,182.27 670.28,181.39 674.94,180.51 679.60,179.63 684.26,178.75 688.92,177.87 693.57,177.08 698.23,176.20 702.89,175.33 707.55,174.45 712.21,173.58 716.87,172.71 721.53,171.84 726.18,170.97 730.84,170.10 735.50,169.24 740.16,168.37 744.82,167.51 749.48,166.64 754.14,165.78 758.80,164.92 763.45,164.06 768.11,163.20 772.77,162.34 777.43,161.44 782.09,160.59 786.75,159.73 791.41,158.88 796.06,158.03 800.72,157.18 805.38,156.33 810.04,155.48 814.70,154.64 819.36,153.79 824.02,152.95 828.67,152.11 833.33,151.27 837.99,150.43 842.65,149.59 847.31,148.75 851.97,148.01 856.63,147.18 861.29,146.35 865.94,145.52 870.60,144.69 875.26,143.86 879.92,143.04 884.58,142.21 889.24,141.39 893.90,140.57 898.55,139.75 903.21,138.93 907.87,138.12 912.53,137.30 917.19,136.49 921.85,135.68 926.51,134.87 931.16,134.06 935.82,133.26 940.48,132.45 945.14,131.65 949.80,130.85 954.46,130.05 959.12,129.26 963.78,128.46 968.43,127.67 973.09,126.88 977.75,126.09 982.41,125.30 987.07,124.52 991.73,123.73 996.39,122.95 1001.04,122.17 1005.70,121.39 1010.36,120.61 1015.02,119.84 1019.68,119.07 1024.34,118.29 1029.00,117.53 1033.65,116.76 1038.31,115.99 1042.97,115.23 1047.63,114.47 1052.29,113.71 1056.95,112.95 1061.61,112.20 1066.27,111.61 1070.92,110.86 1075.58,110.11 1080.24,109.37 1084.90,108.62 1089.56,107.87 1094.22,107.13 1098.88,106.39 1103.53,105.66 1108.19,104.92 1112.85,104.19 1117.51,103.46 1122.17,102.73 1126.83,102.01 1131.49,101.35 1136.14,100.63 1140.80,99.91 1145.46,99.19 1150.12,98.48 1154.78,97.76 1159.44,97.05 1164.10,96.34 1168.76,95.64 1173.41,94.93 1178.07,94.23 1182.73,93.53 1187.39,92.83 1192.05,92.13 1196.71,91.44 1201.37,90.75 1206.02,90.06 1210.68,89.37 1215.34,88.68 1220.00,88.00"/>
<polyline fill="none" stroke="#8b1c1c" stroke-width="2" points="60.00,286.00 64.66,284.16 69.32,282.39 73.98,280.67 78.63,278.98 83.29,277.33 87.95,275.71 92.61,274.14 97.27,272.60 101.93,271.08 106.59,269.59 111.24,268.14 115.90,266.71 120.56,265.30 125.22,263.91 129.88,262.95 134.54,261.58 139.20,260.23 143.86,258.88 148.51,257.55 153.17,256.24 157.83,254.94 162.49,253.65 167.15,252.38 171.81,251.12 176.47,249.88 181.12,248.65 185.78,247.42 190.44,246.22 195.10,245.02 199.76,243.83 204.42,242.66 209.08,241.40 213.73,240.23 218.39,239.08 223.05,237.93 227.71,236.80 232.37,235.67 237.03,234.55 241.69,233.43 246.35,232.32 251.00,231.23 255.66,230.13 260.32,229.05 264.98,227.97 269.64,226.89 274.30,225.83 278.96,224.77 283.61,223.71 288.27,222.66 292.93,221.62 297.59,220.59 302.25,219.56 306.91,218.53 311.57,217.52 316.22,216.51 320.88,215.50 325.54,214.50 330.20,213.50 334.86,212.51 339.52,211.52 344.18,210.54 348.84,209.57 353.49,208.60 358.15,207.73 362.81,206.77 367.47,205.82 372.13,204.87 376.79,203.93 381.45,202.99 386.10,202.06 390.76,201.13 395.42,200.21 400.08,199.39 404.74,198.48 409.40,197.57 414.06,196.67 418.71,195.77 423.37,194.87 428.03,193.98 432.69,193.10 437.35,192.21 442.01,191.33 446.67,190.46 451.33,189.59 455.98,188.72 460.64,187.86 465.30,187.12 469.96,186.26 474.62,185.41 479.28,184.57 483.94,183.72 488.59,182.89 493.25,182.05 497.91,181.22 502.57,180.39 507.23,179.57 511.89,178.75 516.55,177.93 521.20,177.01 525.86,176.20 530.52,175.39 535.18,174.59 539.84,173.79 544.50,172.99 549.16,172.20 553.82,171.41 558.47,170.63 563.13,169.84 567.79,169.03 572.45,168.26 577.11,167.49 581.77,166.72 586.43,165.96 591.08,165.20 595.74,164.44 600.40,163.68 605.06,162.93 609.72,162.18 614.38,161.44 619.04,160.69 623.69,159.95 628.35,159.22 633.01,158.49 637.67,157.76 642.33,157.03 646.99,156.31 651.65,155.59 656.31,154.71 660.96,154.00 665.62,153.29 670.28,152.59 674.94,151.88 679.60,151.18 684.26,150.49 688.92,149.79 693.57,149.17 698.23,148.48 702.89,147.80 707.55,147.12 712.21,146.44 716.87,145.76 721.53,145.09 726.18,144.42 730.84,143.75 735.50,143.09 740.16,142.43 744.82,141.77 749.48,141.11 754.14,140.46 758.80,139.81 763.45,139.16 768.11,138.52 772.77,137.88 777.43,137.20 782.09,136.57 786.75,135.93 791.41,135.30 796.06,134.68 800.72,134.05 805.38,133.43 810.04,132.81 814.70,132.19 819.36,131.58 824.02,130.97 828.67,130.36 833.33,129.75 837.99,129.15 842.65,128.55 847.31,127.95 851.97,127.42 856.63,126.83 861.29,126.24 865.94,125.65 870.60,125.06 875.26,124.48 879.92,123.90 884.58,123.32 889.24,122.75 893.90,122.18 898.55,121.61 903.21,121.04 907.87,120.48 912.53,119.91 917.19,119.36 921.85,118.80 926.51,118.24 931.16,117.69 935.82,117.14 940.48,116.59 945.14,116.05 949.80,115.50 954.46,114.96 959.12,114.43 963.78,113.89 968.43,113.36 973.09,112.82 977.75,112.29 982.41,111.77 987.07,111.24 991.73,110.72 996.39,110.20 1001.04,109.69 1005.70,109.17 1010.36,108.66 1015.02,108.15 1019.68,107.64 1024.34,107.14 1029.00,106.63 1033.65,106.13 1038.31,105.64 1042.97,105.14 1047.63,104.64 1052.29,104.15 1056.95,103.66 1061.61,103.18 1066.27,102.80 1070.92,102.31 1075.58,101.83 1080.24,101.35 1084.90,100.88 1089.56,100.39 1094.22,99.92 1098.88,99.45 1103.53,98.98 1108.19,98.52 1112.85,98.05 1117.51,97.59 1122.17,97.13 1126.83,96.67 1131.49,96.26 1136.14,95.81 1140.80,95.36 1145.46,94.91 1150.12,94.46 1154.78,94.02 1159.44,93.57 1164.10,93.13 1168.76,92.69 1173.41,92.26 1178.07,91.82 1182.73,91.39 1187.39,90.96 1192.05,90.53 1196.71,90.10 1201.37,89.68 1206.02,89.26 1210.68,88.84 1215.34,88.42 1220.00,88.00"/>
<text x="180" y="94" font-family="monospace" font-size="11" fill="#555">daily emission</text>
<text x="310" y="94" font-family="monospace" font-size="11" fill="#2f7d32">cum user1</text>
<text x="420" y="94" font-family="monospace" font-size="11" fill="#6a1b9a">cum user3</text>
<text x="530" y="94" font-family="monospace" font-size="11" fill="#8b1c1c">cum whale</text>
<rect x="60" y="382" width="1160" height="214" fill="none" stroke="#222" stroke-width="1"/>
<text x="68" y="400" font-family="monospace" font-size="13" fill="#222">Scenario B</text>
<polyline fill="none" stroke="#555" stroke-width="1.5" points="60.00,449.61 64.66,451.12 69.32,452.55 73.98,453.92 78.63,455.24 83.29,394.00 87.95,457.73 92.61,458.92 97.27,460.07 101.93,461.20 106.59,462.29 111.24,463.36 115.90,421.65 120.56,465.42 125.22,466.41 129.88,467.39 134.54,468.34 139.20,469.27 143.86,470.19 148.51,471.09 153.17,471.97 157.83,472.84 162.49,473.69 167.15,474.53 171.81,475.35 176.47,476.16 181.12,476.96 185.78,477.75 190.44,478.52 195.10,479.29 199.76,480.04 204.42,480.78 209.08,481.52 213.73,482.24 218.39,482.96 223.05,483.66 227.71,484.36 232.37,446.33 237.03,485.73 241.69,486.41 246.35,487.07 251.00,487.73 255.66,535.37 260.32,489.03 264.98,489.67 269.64,490.31 274.30,490.94 278.96,491.56 283.61,492.18 288.27,492.79 292.93,493.40 297.59,494.01 302.25,494.60 306.91,495.20 311.57,495.79 316.22,496.38 320.88,496.96 325.54,497.54 330.20,498.11 334.86,498.68 339.52,499.25 344.18,499.81 348.84,500.37 353.49,500.93 358.15,501.48 362.81,502.04 367.47,502.59 372.13,503.13 376.79,503.67 381.45,504.22 386.10,504.75 390.76,505.29 395.42,505.83 400.08,506.36 404.74,506.89 409.40,507.41 414.06,507.94 418.71,508.46 423.37,461.80 428.03,509.51 432.69,510.03 437.35,510.54 442.01,511.06 446.67,511.57 451.33,512.09 455.98,512.60 460.64,513.11 465.30,513.61 469.96,514.12 474.62,514.63 479.28,515.13 483.94,515.64 488.59,568.95 493.25,516.64 497.91,517.14 502.57,517.64 507.23,518.14 511.89,518.63 516.55,519.13 521.20,519.63 525.86,520.12 530.52,520.62 535.18,521.11 539.84,521.60 544.50,522.09 549.16,522.58 553.82,523.07 558.47,523.56 563.13,524.05 567.79,524.54 572.45,525.03 577.11,525.52 581.77,526.00 586.43,526.49 591.08,526.97 595.74,527.46 600.40,527.94 605.06,528.43 609.72,528.91 614.38,529.39 619.04,529.87 623.69,530.35 628.35,530.84 633.01,531.32 637.67,531.80 642.33,532.28 646.99,532.76 651.65,533.23 656.31,533.71 660.96,534.19 665.62,534.67 670.28,535.15 674.94,535.62 679.60,536.10 684.26,536.58 688.92,537.05 693.57,537.53 698.23,538.00 702.89,538.48 707.55,538.95 712.21,539.42 716.87,539.90 721.53,540.37 726.18,540.84 730.84,541.31 735.50,541.79 740.16,542.26 744.82,542.73 749.48,543.20 754.14,543.67 758.80,544.14 763.45,544.61 768.11,545.08 772.77,545.55 777.43,546.01 782.09,540.98 786.75,546.95 791.41,547.42 796.06,547.88 800.72,548.35 805.38,548.82 810.04,549.28 814.70,549.75 819.36,550.21 824.02,550.67 828.67,551.14 833.33,551.60 837.99,552.06 842.65,552.53 847.31,552.99 851.97,553.45 856.63,553.91 861.29,554.37 865.94,554.83 870.60,555.29 875.26,555.75 879.92,556.21 884.58,556.66 889.24,557.12 893.90,557.58 898.55,558.03 903.21,558.49 907.87,558.95 912.53,559.40 917.19,559.85 921.85,560.31 926.51,544.64 931.16,561.21 935.82,561.67 940.48,562.12 945.14,562.57 949.80,563.02 954.46,563.47 959.12,563.92 963.78,564.37 968.43,564.81 973.09,565.26 977.75,565.71 982.41,566.15 987.07,566.60 991.73,567.04 996.39,567.49 1001.04,567.93 1005.70,568.37 1010.36,568.81 1015.02,532.75 1019.68,569.70 1024.34,570.14 1029.00,571.45 1033.65,571.02 1038.31,571.45 1042.97,571.89 1047.63,533.16 1052.29,572.76 1056.95,573.20 1061.61,573.63 1066.27,574.07 1070.92,574.50 1075.58,574.93 1080.24,575.36 1084.90,575.79 1089.56,576.22 1094.22,576.65 1098.88,577.08 1103.53,577.51 1108.19,577.93 1112.85,578.36 1117.51,578.79 1122.17,577.16 1126.83,579.63 1131.49,580.06 1136.14,592.00 1140.80,580.90 1145.46,581.32 1150.12,569.90 1154.78,582.16 1159.44,582.58 1164.10,582.99 1168.76,583.41 1173.41,583.82 1178.07,562.18 1182.73,584.65 1187.39,585.07 1192.05,585.48 1196.71,566.80 1201.37,586.30 1206.02,586.71 1210.68,587.12 1215.34,587.52 1220.00,587.93"/>
<polyline fill="none" stroke="#2f7d32" stroke-width="2" points="60.00,592.00 64.66,591.19 69.32,590.37 73.98,589.49 78.63,588.60 83.29,587.37 87.95,586.37 92.61,585.37 97.27,584.37 101.93,583.34 106.59,582.30 111.24,581.24 115.90,579.96 120.56,578.90 125.22,577.81 129.88,576.72 134.54,575.62 139.20,574.52 143.86,573.43 148.51,572.33 153.17,571.25 157.83,570.15 162.49,569.06 167.15,567.97 171.81,566.87 176.47,565.77 181.12,564.68 185.78,563.59 190.44,562.51 195.10,561.43 199.76,560.35 204.42,559.27 209.08,558.19 213.73,557.10 218.39,556.02 223.05,554.94 227.71,553.87 232.37,552.60 237.03,551.54 241.69,550.48 246.35,549.42 251.00,548.36 255.66,547.55 260.32,546.50 264.98,545.45 269.64,544.40 274.30,543.35 278.96,542.31 283.61,541.27 288.27,540.24 292.93,539.21 297.59,538.18 302.25,537.15 306.91,536.13 311.57,535.12 316.22,534.10 320.88,533.09 325.54,532.09 330.20,531.09 334.86,530.09 339.52,529.10 344.18,528.10 348.84,527.11 353.49,526.13 358.15,525.14 362.81,524.16 367.47,523.17 372.13,522.19 376.79,521.21 381.45,520.24 386.10,519.26 390.76,518.30 395.42,517.33 400.08,516.37 404.74,515.41 409.40,514.45 414.06,513.50 418.71,512.55 423.37,511.36 428.03,510.41 432.69,509.47 437.35,508.54 442.01,507.61 446.67,506.67 451.33,505.75 455.98,504.83 460.64,503.91 465.30,503.00 469.96,502.08 474.62,501.18 479.28,500.27 483.94,499.37 488.59,498.75 493.25,497.85 497.91,496.96 502.57,496.07 507.23,495.18 511.89,494.30 516.55,493.41 521.20,492.53 525.86,491.66 530.52,490.78 535.18,489.91 539.84,489.04 544.50,488.18 549.16,487.32 553.82,486.46 558.47,485.60 563.13,484.75 567.79,483.90 572.45,483.06 577.11,482.22 581.77,481.38 586.43,480.55 591.08,479.72 595.74,478.89 600.40,478.07 605.06,477.25 609.72,476.43 614.38,475.62 619.04,474.81 623.69,474.00 628.35,473.19 633.01,472.39 637.67,471.59 642.33,470.79 646.99,470.00 651.65,469.20 656.31,468.42 660.96,467.64 665.62,466.86 670.28,466.08 674.94,465.31 679.60,464.54 684.26,463.77 688.92,463.00 693.57,462.24 698.23,461.48 702.89,460.72 707.55,459.97 712.21,459.22 716.87,458.47 721.53,457.73 726.18,456.99 730.84,456.25 735.50,455.51 740.16,454.78 744.82,454.05 749.48,453.33 754.14,452.61 758.80,451.89 763.45,451.18 768.11,450.46 772.77,449.76 777.43,449.05 782.09,448.32 786.75,447.62 791.41,446.93 796.06,446.24 800.72,445.55 805.38,444.87 810.04,444.18 814.70,443.50 819.36,442.83 824.02,442.16 828.67,441.49 833.33,440.82 837.99,440.16 842.65,439.50 847.31,438.83 851.97,438.18 856.63,437.52 861.29,436.87 865.94,436.22 870.60,435.57 875.26,434.93 879.92,434.29 884.58,433.65 889.24,433.01 893.90,432.38 898.55,431.75 903.21,431.13 907.87,430.50 912.53,429.88 917.19,429.26 921.85,428.65 926.51,427.96 931.16,427.35 935.82,426.74 940.48,426.14 945.14,425.54 949.80,424.94 954.46,424.34 959.12,423.75 963.78,423.16 968.43,422.57 973.09,421.98 977.75,421.40 982.41,420.82 987.07,420.24 991.73,419.67 996.39,419.10 1001.04,418.53 1005.70,417.96 1010.36,417.40 1015.02,416.67 1019.68,416.11 1024.34,415.55 1029.00,415.01 1033.65,414.46 1038.31,413.91 1042.97,413.36 1047.63,412.63 1052.29,412.09 1056.95,411.55 1061.61,411.02 1066.27,410.48 1070.92,409.95 1075.58,409.42 1080.24,408.90 1084.90,408.37 1089.56,407.85 1094.22,407.33 1098.88,406.81 1103.53,406.30 1108.19,405.79 1112.85,405.28 1117.51,404.78 1122.17,404.26 1126.83,403.76 1131.49,403.26 1136.14,402.82 1140.80,402.32 1145.46,401.83 1150.12,401.28 1154.78,400.79 1159.44,400.31 1164.10,399.82 1168.76,399.34 1173.41,398.86 1178.07,398.29 1182.73,397.81 1187.39,397.34 1192.05,396.87 1196.71,396.31 1201.37,395.85 1206.02,395.38 1210.68,394.92 1215.34,394.46 1220.00,394.00"/>
<polyline fill="none" stroke="#6a1b9a" stroke-width="2" points="60.00,592.00 64.66,591.59 69.32,591.13 73.98,590.63 78.63,590.11 83.29,589.42 87.95,588.86 92.61,588.28 97.27,587.66 101.93,587.02 106.59,586.38 111.24,585.72 115.90,584.91 120.56,584.23 125.22,583.55 129.88,582.85 134.54,582.14 139.20,581.42 143.86,580.69 148.51,579.96 153.17,579.23 157.83,578.49 162.49,577.74 167.15,576.99 171.81,576.24 176.47,575.48 181.12,574.71 185.78,573.94 190.44,573.16 195.10,572.38 199.76,571.59 204.42,570.79 209.08,569.99 213.73,569.19 218.39,568.39 223.05,567.58 227.71,566.78 232.37,565.81 237.03,565.00 241.69,564.18 246.35,563.36 251.00,562.54 255.66,561.92 260.32,561.09 264.98,560.27 269.64,559.44 274.30,558.60 278.96,557.77 283.61,556.93 288.27,556.09 292.93,555.24 297.59,554.40 302.25,553.54 306.91,552.69 311.57,551.83 316.22,550.97 320.88,550.12 325.54,549.25 330.20,548.39 334.86,547.52 339.52,546.66 344.18,545.79 348.84,544.92 353.49,544.05 358.15,543.18 362.81,542.31 367.47,541.44 372.13,540.56 376.79,539.68 381.45,538.81 386.10,537.93 390.76,537.05 395.42,536.17 400.08,535.30 404.74,534.42 409.40,533.54 414.06,532.66 418.71,531.78 423.37,530.67 428.03,529.80 432.69,528.91 437.35,528.03 442.01,527.15 446.67,526.27 451.33,525.39 455.98,524.51 460.64,523.63 465.30,522.75 469.96,521.87 474.62,520.99 479.28,520.11 483.94,519.23 488.59,518.62 493.25,517.74 497.91,516.86 502.57,515.98 507.23,515.10 511.89,514.22 516.55,513.34 521.20,512.46 525.86,511.59 530.52,510.71 535.18,509.83 539.84,508.96 544.50,508.08 549.16,507.21 553.82,506.33 558.47,505.46 563.13,504.58 567.79,503.71 572.45,502.84 577.11,501.97 581.77,501.10 586.43,500.22 591.08,499.35 595.74,498.48 600.40,497.61 605.06,496.74 609.72,495.88 614.38,495.01 619.04,494.14 623.69,493.28 628.35,492.41 633.01,491.55 637.67,490.69 642.33,489.83 646.99,488.97 651.65,488.11 656.31,487.25 660.96,486.40 665.62,485.54 670.28,484.68 674.94,483.83 679.60,482.98 684.26,482.13 688.92,481.28 693.57,480.43 698.23,479.58 702.89,478.74 707.55,477.89 712.21,477.05 716.87,476.21 721.53,475.36 726.18,474.53 730.84,473.69 735.50,472.85 740.16,472.02 744.82,471.18 749.48,470.35 754.14,469.52 758.80,468.68 763.45,467.86 768.11,467.03 772.77,466.20 777.43,465.38 782.09,464.52 786.75,463.70 791.41,462.88 796.06,462.06 800.72,461.25 805.38,460.43 810.04,459.62 814.70,458.80 819.36,457.99 824.02,457.19 828.67,456.38 833.33,455.57 837.99,454.77 842.65,453.97 847.31,453.17 851.97,452.37 856.63,451.57 861.29,450.77 865.94,449.98 870.60,449.18 875.26,448.39 879.92,447.60 884.58,446.81 889.24,446.02 893.90,445.24 898.55,444.45 903.21,443.67 907.87,442.89 912.53,442.11 917.19,441.33 921.85,440.55 926.51,439.68 931.16,438.91 935.82,438.14 940.48,437.37 945.14,436.60 949.80,435.83 954.46,435.07 959.12,434.30 963.78,433.54 968.43,432.79 973.09,432.03 977.75,431.27 982.41,430.52 987.07,429.77 991.73,429.02 996.39,428.27 1001.04,427.53 1005.70,426.78 1010.36,426.04 1015.02,425.08 1019.68,424.34 1024.34,423.60 1029.00,422.88 1033.65,422.15 1038.31,421.42 1042.97,420.69 1047.63,419.72 1052.29,418.99 1056.95,418.27 1061.61,417.55 1066.27,416.83 1070.92,416.12 1075.58,415.40 1080.24,414.69 1084.90,413.98 1089.56,413.28 1094.22,412.57 1098.88,411.87 1103.53,411.17 1108.19,410.47 1112.85,409.77 1117.51,409.07 1122.17,408.37 1126.83,407.67 1131.49,406.98 1136.14,406.37 1140.80,405.68 1145.46,405.00 1150.12,404.24 1154.78,403.56 1159.44,402.89 1164.10,402.21 1168.76,401.54 1173.41,400.87 1178.07,400.05 1182.73,399.39 1187.39,398.72 1192.05,398.06 1196.71,397.27 1201.37,396.62 1206.02,395.96 1210.68,395.30 1215.34,394.65 1220.00,394.00"/>
<polyline fill="none" stroke="#1f4f99" stroke-width="2" points="60.00,592.00 64.66,590.25 69.32,588.56 73.98,586.91 78.63,585.29 83.29,583.30 87.95,581.76 92.61,580.25 97.27,578.76 101.93,577.31 106.59,575.88 111.24,574.46 115.90,572.81 120.56,571.43 125.22,570.07 129.88,568.73 134.54,567.41 139.20,566.10 143.86,564.80 148.51,563.51 153.17,562.24 157.83,560.97 162.49,559.72 167.15,558.47 171.81,557.24 176.47,556.02 181.12,554.81 185.78,553.61 190.44,552.42 195.10,551.23 199.76,550.06 204.42,548.90 209.08,547.75 213.73,546.60 218.39,545.46 223.05,544.33 227.71,543.21 232.37,541.88 237.03,540.77 241.69,539.67 246.35,538.57 251.00,537.48 255.66,536.66 260.32,535.58 264.98,534.51 269.64,533.45 274.30,532.40 278.96,531.35 283.61,530.31 288.27,529.27 292.93,528.24 297.59,527.22 302.25,526.21 306.91,525.20 311.57,524.19 316.22,523.20 320.88,522.20 325.54,521.22 330.20,520.23 334.86,519.26 339.52,518.28 344.18,517.32 348.84,516.36 353.49,515.40 358.15,514.45 362.81,513.50 367.47,512.57 372.13,511.63 376.79,510.70 381.45,509.78 386.10,508.86 390.76,507.94 395.42,507.03 400.08,506.13 404.74,505.22 409.40,504.32 414.06,503.43 418.71,502.53 423.37,501.41 428.03,500.53 432.69,499.65 437.35,498.78 442.01,497.91 446.67,497.04 451.33,496.18 455.98,495.32 460.64,494.47 465.30,493.61 469.96,492.77 474.62,491.92 479.28,491.08 483.94,490.25 488.59,489.67 493.25,488.84 497.91,488.02 502.57,487.19 507.23,486.38 511.89,485.56 516.55,484.75 521.20,483.95 525.86,483.14 530.52,482.34 535.18,481.55 539.84,480.75 544.50,479.96 549.16,479.18 553.82,478.40 558.47,477.62 563.13,476.84 567.79,476.07 572.45,475.30 577.11,474.53 581.77,473.77 586.43,473.01 591.08,472.25 595.74,471.50 600.40,470.75 605.06,470.00 609.72,469.26 614.38,468.52 619.04,467.78 623.69,467.05 628.35,466.32 633.01,465.59 637.67,464.86 642.33,464.14 646.99,463.42 651.65,462.71 656.31,461.99 660.96,461.28 665.62,460.58 670.28,459.87 674.94,459.17 679.60,458.47 684.26,457.77 688.92,457.08 693.57,456.39 698.23,455.70 702.89,455.02 707.55,454.34 712.21,453.66 716.87,452.98 721.53,452.31 726.18,451.64 730.84,450.97 735.50,450.31 740.16,449.64 744.82,448.99 749.48,448.33 754.14,447.68 758.80,447.02 763.45,446.37 768.11,445.73 772.77,445.08 777.43,444.44 782.09,443.78 786.75,443.14 791.41,442.51 796.06,441.88 800.72,441.25 805.38,440.62 810.04,440.00 814.70,439.38 819.36,438.76 824.02,438.15 828.67,437.53 833.33,436.92 837.99,436.31 842.65,435.71 847.31,435.10 851.97,434.51 856.63,433.91 861.29,433.31 865.94,432.72 870.60,432.13 875.26,431.55 879.92,430.96 884.58,430.38 889.24,429.80 893.90,429.23 898.55,428.65 903.21,428.08 907.87,427.51 912.53,426.95 917.19,426.38 921.85,425.82 926.51,425.19 931.16,424.64 935.82,424.08 940.48,423.53 945.14,422.98 949.80,422.44 954.46,421.89 959.12,421.35 963.78,420.81 968.43,420.27 973.09,419.74 977.75,419.20 982.41,418.67 987.07,418.15 991.73,417.62 996.39,417.10 1001.04,416.58 1005.70,416.06 1010.36,415.54 1015.02,414.86 1019.68,414.35 1024.34,413.84 1029.00,413.34 1033.65,412.83 1038.31,412.33 1042.97,411.83 1047.63,411.16 1052.29,410.66 1056.95,410.17 1061.61,409.67 1066.27,409.18 1070.92,408.69 1075.58,408.21 1080.24,407.72 1084.90,407.24 1089.56,406.76 1094.22,406.29 1098.88,405.81 1103.53,405.34 1108.19,404.87 1112.85,404.40 1117.51,403.93 1122.17,403.46 1126.83,402.99 1131.49,402.53 1136.14,402.12 1140.80,401.67 1145.46,401.21 1150.12,400.71 1154.78,400.26 1159.44,399.81 1164.10,399.37 1168.76,398.92 1173.41,398.48 1178.07,397.95 1182.73,397.51 1187.39,397.07 1192.05,396.64 1196.71,396.13 1201.37,395.70 1206.02,395.27 1210.68,394.84 1215.34,394.42 1220.00,394.00"/>
<text x="180" y="400" font-family="monospace" font-size="11" fill="#555">daily emission</text>
<text x="310" y="400" font-family="monospace" font-size="11" fill="#2f7d32">cum user1</text>
<text x="420" y="400" font-family="monospace" font-size="11" fill="#6a1b9a">cum user3</text>
<text x="530" y="400" font-family="monospace" font-size="11" fill="#1f4f99">cum whale</text>
<rect x="60" y="688" width="1160" height="214" fill="none" stroke="#222" stroke-width="1"/>
<text x="68" y="706" font-family="monospace" font-size="13" fill="#222">Scenario C</text>
<polyline fill="none" stroke="#555" stroke-width="1.5" points="60.00,700.00 64.66,702.03 69.32,703.96 73.98,705.80 78.63,707.56 83.29,709.27 87.95,710.92 92.61,712.52 97.27,714.07 101.93,715.58 106.59,717.05 111.24,718.49 115.90,719.89 120.56,721.26 125.22,746.71 129.88,723.91 134.54,725.19 139.20,726.44 143.86,727.68 148.51,763.84 153.17,730.07 157.83,731.24 162.49,732.39 167.15,733.51 171.81,734.62 176.47,771.55 181.12,736.79 185.78,737.84 190.44,738.89 195.10,739.91 199.76,740.93 204.42,741.93 209.08,742.91 213.73,743.89 218.39,744.85 223.05,745.80 227.71,746.74 232.37,747.66 237.03,748.58 241.69,749.49 246.35,750.38 251.00,751.27 255.66,752.15 260.32,753.02 264.98,753.88 269.64,754.74 274.30,755.58 278.96,756.42 283.61,757.26 288.27,758.08 292.93,758.90 297.59,759.71 302.25,760.52 306.91,772.47 311.57,762.11 316.22,762.90 320.88,763.68 325.54,764.46 330.20,704.17 334.86,783.11 339.52,766.76 344.18,767.52 348.84,768.27 353.49,758.29 358.15,769.77 362.81,770.51 367.47,771.25 372.13,771.98 376.79,772.71 381.45,773.44 386.10,774.17 390.76,774.89 395.42,775.61 400.08,776.32 404.74,777.04 409.40,751.63 414.06,778.45 418.71,779.16 423.37,779.86 428.03,780.56 432.69,781.26 437.35,781.95 442.01,782.65 446.67,783.34 451.33,784.03 455.98,784.71 460.64,785.40 465.30,786.08 469.96,786.77 474.62,787.45 479.28,788.12 483.94,788.80 488.59,834.46 493.25,790.15 497.91,790.82 502.57,791.50 507.23,792.17 511.89,868.07 516.55,793.50 521.20,794.17 525.86,794.84 530.52,795.50 535.18,796.16 539.84,796.83 544.50,797.49 549.16,798.15 553.82,798.81 558.47,799.46 563.13,854.79 567.79,800.78 572.45,801.43 577.11,802.09 581.77,802.74 586.43,803.40 591.08,804.05 595.74,804.70 600.40,816.05 605.06,806.00 609.72,806.65 614.38,807.30 619.04,807.95 623.69,808.60 628.35,809.25 633.01,809.89 637.67,810.54 642.33,811.18 646.99,811.83 651.65,812.47 656.31,813.12 660.96,813.76 665.62,814.40 670.28,815.04 674.94,815.69 679.60,816.33 684.26,816.97 688.92,817.61 693.57,818.25 698.23,818.88 702.89,819.52 707.55,820.16 712.21,820.80 716.87,821.43 721.53,822.07 726.18,822.71 730.84,823.34 735.50,768.19 740.16,824.61 744.82,825.24 749.48,825.88 754.14,826.51 758.80,827.14 763.45,827.77 768.11,828.40 772.77,829.03 777.43,829.66 782.09,830.29 786.75,830.92 791.41,831.55 796.06,832.18 800.72,832.80 805.38,833.43 810.04,834.05 814.70,834.68 819.36,835.30 824.02,835.93 828.67,836.55 833.33,889.42 837.99,837.80 842.65,838.42 847.31,839.04 851.97,839.66 856.63,840.28 861.29,840.90 865.94,841.52 870.60,859.65 875.26,842.75 879.92,843.37 884.58,843.98 889.24,844.60 893.90,845.21 898.55,845.83 903.21,846.44 907.87,847.05 912.53,847.67 917.19,848.28 921.85,848.89 926.51,849.50 931.16,850.10 935.82,850.71 940.48,851.32 945.14,851.93 949.80,852.53 954.46,853.14 959.12,853.74 963.78,898.00 968.43,888.06 973.09,855.55 977.75,856.15 982.41,856.75 987.07,857.35 991.73,857.94 996.39,858.54 1001.04,859.14 1005.70,859.73 1010.36,860.33 1015.02,860.92 1019.68,876.40 1024.34,862.11 1029.00,862.70 1033.65,863.29 1038.31,863.88 1042.97,860.42 1047.63,865.05 1052.29,865.64 1056.95,866.22 1061.61,866.81 1066.27,867.39 1070.92,867.97 1075.58,868.55 1080.24,869.13 1084.90,869.71 1089.56,870.29 1094.22,870.87 1098.88,871.45 1103.53,872.02 1108.19,872.59 1112.85,873.17 1117.51,873.74 1122.17,874.31 1126.83,874.88 1131.49,875.45 1136.14,876.02 1140.80,876.58 1145.46,877.15 1150.12,877.71 1154.78,878.28 1159.44,878.84 1164.10,879.40 1168.76,879.96 1173.41,880.52 1178.07,881.07 1182.73,881.63 1187.39,882.18 1192.05,882.74 1196.71,883.29 1201.37,883.84 1206.02,884.39 1210.68,884.94 1215.34,885.49 1220.00,886.04"/>
<polyline fill="none" stroke="#2f7d32" stroke-width="2" points="60.00,898.00 64.66,896.90 69.32,895.80 73.98,894.67 78.63,893.50 83.29,892.30 87.95,891.10 92.61,889.90 97.27,888.69 101.93,887.46 106.59,886.23 111.24,885.01 115.90,883.79 120.56,882.58 125.22,881.47 129.88,880.27 134.54,879.07 139.20,877.86 143.86,876.65 148.51,875.58 153.17,874.38 157.83,873.17 162.49,871.97 167.15,870.77 171.81,869.58 176.47,868.55 181.12,867.37 185.78,866.20 190.44,865.02 195.10,863.85 199.76,862.68 204.42,861.52 209.08,860.35 213.73,859.19 218.39,858.04 223.05,856.89 227.71,855.74 232.37,854.61 237.03,853.48 241.69,852.35 246.35,851.23 251.00,850.10 255.66,848.99 260.32,847.88 264.98,846.78 269.64,845.68 274.30,844.58 278.96,843.50 283.61,842.41 288.27,841.33 292.93,840.26 297.59,839.19 302.25,838.13 306.91,837.11 311.57,836.06 316.22,835.01 320.88,833.97 325.54,832.93 330.20,831.64 334.86,830.67 339.52,829.64 344.18,828.61 348.84,827.59 353.49,826.54 358.15,825.53 362.81,824.52 367.47,823.53 372.13,822.53 376.79,821.54 381.45,820.56 386.10,819.57 390.76,818.59 395.42,817.62 400.08,816.65 404.74,815.69 409.40,814.63 414.06,813.67 418.71,812.72 423.37,811.78 428.03,810.84 432.69,809.90 437.35,808.97 442.01,808.05 446.67,807.12 451.33,806.21 455.98,805.29 460.64,804.38 465.30,803.47 469.96,802.57 474.62,801.66 479.28,800.76 483.94,799.87 488.59,799.15 493.25,798.26 497.91,797.38 502.57,796.49 507.23,795.61 511.89,795.03 516.55,794.16 521.20,793.29 525.86,792.43 530.52,791.57 535.18,790.71 539.84,789.86 544.50,789.01 549.16,788.16 553.82,787.32 558.47,786.49 563.13,785.86 567.79,785.03 572.45,784.21 577.11,783.39 581.77,782.57 586.43,781.76 591.08,780.95 595.74,780.14 600.40,779.38 605.06,778.58 609.72,777.78 614.38,776.99 619.04,776.20 623.69,775.42 628.35,774.64 633.01,773.86 637.67,773.09 642.33,772.32 646.99,771.56 651.65,770.79 656.31,770.04 660.96,769.28 665.62,768.53 670.28,767.79 674.94,767.04 679.60,766.30 684.26,765.57 688.92,764.83 693.57,764.10 698.23,763.38 702.89,762.65 707.55,761.93 712.21,761.21 716.87,760.50 721.53,759.79 726.18,759.08 730.84,758.37 735.50,757.47 740.16,756.77 744.82,756.07 749.48,755.38 754.14,754.69 758.80,754.00 763.45,753.32 768.11,752.64 772.77,751.96 777.43,751.29 782.09,750.62 786.75,749.95 791.41,749.29 796.06,748.62 800.72,747.96 805.38,747.31 810.04,746.66 814.70,746.01 819.36,745.36 824.02,744.71 828.67,744.07 833.33,743.62 837.99,742.98 842.65,742.35 847.31,741.72 851.97,741.10 856.63,740.47 861.29,739.85 865.94,739.23 870.60,738.68 875.26,738.07 879.92,737.46 884.58,736.85 889.24,736.24 893.90,735.64 898.55,735.04 903.21,734.45 907.87,733.85 912.53,733.26 917.19,732.67 921.85,732.08 926.51,731.50 931.16,730.92 935.82,730.34 940.48,729.76 945.14,729.19 949.80,728.62 954.46,728.05 959.12,727.48 963.78,727.07 968.43,726.62 973.09,726.06 977.75,725.51 982.41,724.95 987.07,724.40 991.73,723.86 996.39,723.31 1001.04,722.77 1005.70,722.23 1010.36,721.69 1015.02,721.16 1019.68,720.68 1024.34,720.15 1029.00,719.62 1033.65,719.10 1038.31,718.58 1042.97,718.04 1047.63,717.53 1052.29,717.01 1056.95,716.50 1061.61,715.99 1066.27,715.49 1070.92,714.98 1075.58,714.48 1080.24,713.98 1084.90,713.48 1089.56,712.99 1094.22,712.50 1098.88,712.01 1103.53,711.52 1108.19,711.03 1112.85,710.55 1117.51,710.06 1122.17,709.58 1126.83,709.11 1131.49,708.63 1136.14,708.16 1140.80,707.69 1145.46,707.22 1150.12,706.75 1154.78,706.29 1159.44,705.83 1164.10,705.36 1168.76,704.91 1173.41,704.45 1178.07,704.00 1182.73,703.54 1187.39,703.09 1192.05,702.65 1196.71,702.20 1201.37,701.76 1206.02,701.31 1210.68,700.87 1215.34,700.44 1220.00,700.00"/>
<polyline fill="none" stroke="#6a1b9a" stroke-width="2" points="60.00,898.00 64.66,897.40 69.32,896.75 73.98,896.10 78.63,895.42 83.29,894.75 87.95,894.04 92.61,893.31 97.27,892.59 101.93,891.85 106.59,891.11 111.24,890.34 115.90,889.57 120.56,888.80 125.22,888.09 129.88,887.31 134.54,886.53 139.20,885.74 143.86,884.94 148.51,884.22 153.17,883.41 157.83,882.59 162.49,881.76 167.15,880.93 171.81,880.10 176.47,879.37 181.12,878.53 185.78,877.69 190.44,876.85 195.10,876.00 199.76,875.15 204.42,874.29 209.08,873.44 213.73,872.59 218.39,871.73 223.05,870.88 227.71,870.02 232.37,869.16 237.03,868.30 241.69,867.44 246.35,866.57 251.00,865.70 255.66,864.84 260.32,863.97 264.98,863.10 269.64,862.22 274.30,861.35 278.96,860.47 283.61,859.60 288.27,858.72 292.93,857.84 297.59,856.96 302.25,856.08 306.91,855.23 311.57,854.35 316.22,853.47 320.88,852.59 325.54,851.71 330.20,850.61 334.86,849.79 339.52,848.90 344.18,848.01 348.84,847.13 353.49,846.20 358.15,845.31 362.81,844.42 367.47,843.53 372.13,842.64 376.79,841.75 381.45,840.86 386.10,839.97 390.76,839.08 395.42,838.20 400.08,837.31 404.74,836.42 409.40,835.44 414.06,834.55 418.71,833.66 423.37,832.77 428.03,831.88 432.69,831.00 437.35,830.11 442.01,829.22 446.67,828.34 451.33,827.45 455.98,826.57 460.64,825.68 465.30,824.80 469.96,823.91 474.62,823.03 479.28,822.14 483.94,821.26 488.59,820.54 493.25,819.66 497.91,818.78 502.57,817.90 507.23,817.02 511.89,816.43 516.55,815.55 521.20,814.67 525.86,813.79 530.52,812.92 535.18,812.04 539.84,811.17 544.50,810.29 549.16,809.42 553.82,808.54 558.47,807.67 563.13,807.01 567.79,806.14 572.45,805.27 577.11,804.40 581.77,803.54 586.43,802.67 591.08,801.81 595.74,800.94 600.40,800.12 605.06,799.26 609.72,798.40 614.38,797.54 619.04,796.68 623.69,795.82 628.35,794.97 633.01,794.11 637.67,793.26 642.33,792.40 646.99,791.55 651.65,790.70 656.31,789.86 660.96,789.01 665.62,788.16 670.28,787.32 674.94,786.47 679.60,785.63 684.26,784.79 688.92,783.95 693.57,783.11 698.23,782.27 702.89,781.43 707.55,780.60 712.21,779.76 716.87,778.93 721.53,778.10 726.18,777.27 730.84,776.44 735.50,775.38 740.16,774.55 744.82,773.73 749.48,772.90 754.14,772.08 758.80,771.26 763.45,770.44 768.11,769.63 772.77,768.81 777.43,768.00 782.09,767.19 786.75,766.38 791.41,765.57 796.06,764.76 800.72,763.96 805.38,763.16 810.04,762.36 814.70,761.56 819.36,760.76 824.02,759.96 828.67,759.17 833.33,758.60 837.99,757.81 842.65,757.02 847.31,756.24 851.97,755.45 856.63,754.67 861.29,753.89 865.94,753.11 870.60,752.41 875.26,751.63 879.92,750.86 884.58,750.09 889.24,749.32 893.90,748.55 898.55,747.78 903.21,747.02 907.87,746.25 912.53,745.49 917.19,744.73 921.85,743.97 926.51,743.22 931.16,742.46 935.82,741.71 940.48,740.96 945.14,740.21 949.80,739.47 954.46,738.72 959.12,737.98 963.78,737.43 968.43,736.84 973.09,736.11 977.75,735.37 982.41,734.64 987.07,733.91 991.73,733.18 996.39,732.45 1001.04,731.73 1005.70,731.01 1010.36,730.29 1015.02,729.57 1019.68,728.92 1024.34,728.20 1029.00,727.49 1033.65,726.78 1038.31,726.07 1042.97,725.34 1047.63,724.64 1052.29,723.94 1056.95,723.24 1061.61,722.54 1066.27,721.84 1070.92,721.15 1075.58,720.46 1080.24,719.77 1084.90,719.08 1089.56,718.39 1094.22,717.71 1098.88,717.03 1103.53,716.34 1108.19,715.67 1112.85,714.99 1117.51,714.31 1122.17,713.64 1126.83,712.97 1131.49,712.30 1136.14,711.64 1140.80,710.97 1145.46,710.31 1150.12,709.65 1154.78,708.99 1159.44,708.34 1164.10,707.68 1168.76,707.03 1173.41,706.38 1178.07,705.73 1182.73,705.09 1187.39,704.44 1192.05,703.80 1196.71,703.16 1201.37,702.53 1206.02,701.89 1210.68,701.26 1215.34,700.63 1220.00,700.00"/>
<polyline fill="none" stroke="#2f7d32" stroke-width="2" points="60.00,898.00 64.66,896.30 69.32,894.66 73.98,893.04 78.63,891.48 83.29,889.94 87.95,888.44 92.61,886.95 97.27,885.50 101.93,884.07 106.59,882.65 111.24,881.26 115.90,879.88 120.56,878.52 125.22,877.27 129.88,875.93 134.54,874.60 139.20,873.29 143.86,872.00 148.51,870.88 153.17,869.62 157.83,868.37 162.49,867.13 167.15,865.90 171.81,864.68 176.47,863.63 181.12,862.43 185.78,861.23 190.44,860.05 195.10,858.88 199.76,857.72 204.42,856.57 209.08,855.42 213.73,854.28 218.39,853.15 223.05,852.03 227.71,850.91 232.37,849.80 237.03,848.69 241.69,847.59 246.35,846.50 251.00,845.42 255.66,844.34 260.32,843.27 264.98,842.21 269.64,841.15 274.30,840.10 278.96,839.05 283.61,838.01 288.27,836.98 292.93,835.95 297.59,834.92 302.25,833.90 306.91,832.93 311.57,831.92 316.22,830.92 320.88,829.92 325.54,828.93 330.20,827.70 334.86,826.79 339.52,825.81 344.18,824.84 348.84,823.88 353.49,822.87 358.15,821.91 362.81,820.96 367.47,820.01 372.13,819.07 376.79,818.13 381.45,817.19 386.10,816.26 390.76,815.33 395.42,814.41 400.08,813.48 404.74,812.57 409.40,811.56 414.06,810.65 418.71,809.74 423.37,808.84 428.03,807.94 432.69,807.05 437.35,806.16 442.01,805.27 446.67,804.39 451.33,803.51 455.98,802.63 460.64,801.76 465.30,800.90 469.96,800.03 474.62,799.18 479.28,798.32 483.94,797.47 488.59,796.79 493.25,795.95 497.91,795.11 502.57,794.28 507.23,793.44 511.89,792.89 516.55,792.06 521.20,791.24 525.86,790.42 530.52,789.61 535.18,788.80 539.84,787.99 544.50,787.18 549.16,786.38 553.82,785.58 558.47,784.79 563.13,784.19 567.79,783.40 572.45,782.62 577.11,781.84 581.77,781.06 586.43,780.28 591.08,779.51 595.74,778.73 600.40,778.01 605.06,777.24 609.72,776.48 614.38,775.72 619.04,774.96 623.69,774.21 628.35,773.46 633.01,772.72 637.67,771.97 642.33,771.23 646.99,770.49 651.65,769.76 656.31,769.02 660.96,768.29 665.62,767.57 670.28,766.84 674.94,766.12 679.60,765.40 684.26,764.69 688.92,763.98 693.57,763.27 698.23,762.56 702.89,761.86 707.55,761.16 712.21,760.46 716.87,759.77 721.53,759.08 726.18,758.39 730.84,757.71 735.50,756.83 740.16,756.15 744.82,755.48 749.48,754.80 754.14,754.13 758.80,753.46 763.45,752.80 768.11,752.13 772.77,751.47 777.43,750.81 782.09,750.16 786.75,749.51 791.41,748.86 796.06,748.21 800.72,747.56 805.38,746.92 810.04,746.28 814.70,745.64 819.36,745.01 824.02,744.38 828.67,743.75 833.33,743.30 837.99,742.67 842.65,742.05 847.31,741.43 851.97,740.81 856.63,740.20 861.29,739.59 865.94,738.98 870.60,738.43 875.26,737.83 879.92,737.23 884.58,736.63 889.24,736.03 893.90,735.44 898.55,734.84 903.21,734.26 907.87,733.67 912.53,733.09 917.19,732.51 921.85,731.93 926.51,731.35 931.16,730.78 935.82,730.21 940.48,729.64 945.14,729.07 949.80,728.51 954.46,727.95 959.12,727.39 963.78,726.98 968.43,726.54 973.09,725.98 977.75,725.44 982.41,724.89 987.07,724.34 991.73,723.80 996.39,723.26 1001.04,722.72 1005.70,722.19 1010.36,721.65 1015.02,721.12 1019.68,720.65 1024.34,720.12 1029.00,719.59 1033.65,719.07 1038.31,718.55 1042.97,718.02 1047.63,717.51 1052.29,716.99 1056.95,716.48 1061.61,715.97 1066.27,715.47 1070.92,714.96 1075.58,714.46 1080.24,713.96 1084.90,713.46 1089.56,712.97 1094.22,712.48 1098.88,711.99 1103.53,711.50 1108.19,711.01 1112.85,710.53 1117.51,710.05 1122.17,709.57 1126.83,709.09 1131.49,708.62 1136.14,708.14 1140.80,707.67 1145.46,707.20 1150.12,706.74 1154.78,706.27 1159.44,705.81 1164.10,705.35 1168.76,704.90 1173.41,704.44 1178.07,703.99 1182.73,703.54 1187.39,703.09 1192.05,702.64 1196.71,702.19 1201.37,701.75 1206.02,701.31 1210.68,700.87 1215.34,700.43 1220.00,700.00"/>
<text x="180" y="706" font-family="monospace" font-size="11" fill="#555">daily emission</text>
<text x="310" y="706" font-family="monospace" font-size="11" fill="#2f7d32">cum user1</text>
<text x="420" y="706" font-family="monospace" font-size="11" fill="#6a1b9a">cum user3</text>
<text x="530" y="706" font-family="monospace" font-size="11" fill="#2f7d32">cum whale</text>
<text x="640.0" y="966" text-anchor="middle" font-family="monospace" font-size="11" fill="#333">Representative run per scenario; full Monte Carlo stats in rel-stress-summary.json</text>
</svg>