<svg xmlns="http://www.w3.org/2000/svg" viewBox="0 0 1200 1200">
<rect width="1200" height="1200" fill="#f6f2e8"/>
<text x="600.0" y="38" text-anchor="middle" font-family="monospace" font-size="22" font-weight="700">Cohort Curves (Compounding, Uncapped BPS)</text>
<rect x="60" y="80" width="1080" height="280" fill="none" stroke="#222" stroke-width="1"/>
<polyline fill="none" stroke="#2f7d32" stroke-width="2" points="60.00,360.00 64.34,357.57 68.67,355.16 73.01,352.78 77.35,350.43 81.69,348.10 86.02,345.79 90.36,343.50 94.70,341.24 99.04,339.00 103.37,336.78 107.71,334.58 112.05,332.41 116.39,330.25 120.72,328.11 125.06,325.99 129.40,323.89 133.73,321.81 138.07,319.75 142.41,317.70 146.75,315.67 151.08,313.66 155.42,311.67 159.76,309.69 164.10,307.73 168.43,305.79 172.77,303.86 177.11,301.95 181.45,300.05 185.78,298.17 190.12,296.30 194.46,294.45 198.80,292.61 203.13,290.79 207.47,288.98 211.81,287.19 216.14,285.41 220.48,283.64 224.82,281.88 229.16,280.14 233.49,278.42 237.83,276.70 242.17,275.00 246.51,273.31 250.84,271.63 255.18,269.96 259.52,268.31 263.86,266.67 268.19,265.04 272.53,263.42 276.87,261.82 281.20,260.22 285.54,258.64 289.88,257.07 294.22,255.50 298.55,253.95 302.89,252.41 307.23,250.88 311.57,249.37 315.90,247.86 320.24,246.36 324.58,244.87 328.92,243.39 333.25,241.93 337.59,240.47 341.93,239.02 346.27,237.58 350.60,236.15 354.94,234.73 359.28,233.32 363.61,231.92 367.95,230.53 372.29,229.15 376.63,227.78 380.96,226.41 385.30,225.06 389.64,223.71 393.98,222.37 398.31,221.05 402.65,219.73 406.99,218.41 411.33,217.11 415.66,215.81 420.00,214.53 424.34,213.25 428.67,211.98 433.01,210.72 437.35,209.46 441.69,208.22 446.02,206.98 450.36,205.75 454.70,204.52 459.04,203.31 463.37,202.10 467.71,200.90 472.05,199.71 476.39,198.52 480.72,197.34 485.06,196.17 489.40,195.01 493.73,193.85 498.07,192.71 502.41,191.56 506.75,190.43 511.08,189.30 515.42,188.18 519.76,187.07 524.10,185.96 528.43,184.86 532.77,183.76 537.11,182.68 541.45,181.60 545.78,180.52 550.12,179.45 554.46,178.39 558.80,177.34 563.13,176.29 567.47,175.25 571.81,174.21 576.14,173.18 580.48,172.16 584.82,171.14 589.16,170.13 593.49,169.13 597.83,168.13 602.17,167.14 606.51,166.15 610.84,165.17 615.18,164.19 619.52,163.23 623.86,162.26 628.19,161.30 632.53,160.35 636.87,159.41 641.20,158.47 645.54,157.53 649.88,156.60 654.22,155.68 658.55,154.76 662.89,153.85 667.23,152.94 671.57,152.04 675.90,151.14 680.24,150.25 684.58,149.36 688.92,148.48 693.25,147.60 697.59,146.73 701.93,145.87 706.27,145.01 710.60,144.15 714.94,143.30 719.28,142.45 723.61,141.61 727.95,140.78 732.29,139.95 736.63,139.12 740.96,138.30 745.30,137.48 749.64,136.67 753.98,135.87 758.31,135.06 762.65,134.27 766.99,133.47 771.33,132.69 775.66,131.90 780.00,131.12 784.34,130.35 788.67,129.58 793.01,128.81 797.35,128.05 801.69,127.30 806.02,126.55 810.36,125.80 814.70,125.05 819.04,124.32 823.37,123.58 827.71,122.85 832.05,122.12 836.39,121.40 840.72,120.68 845.06,119.97 849.40,119.26 853.73,118.56 858.07,117.86 862.41,117.16 866.75,116.47 871.08,115.78 875.42,115.09 879.76,114.41 884.10,113.73 888.43,113.06 892.77,112.39 897.11,111.73 901.45,111.06 905.78,110.41 910.12,109.75 914.46,109.10 918.80,108.46 923.13,107.81 927.47,107.17 931.81,106.54 936.14,105.91 940.48,105.28 944.82,104.66 949.16,104.04 953.49,103.42 957.83,102.80 962.17,102.19 966.51,101.59 970.84,100.99 975.18,100.39 979.52,99.79 983.86,99.20 988.19,98.61 992.53,98.02 996.87,97.44 1001.20,96.86 1005.54,96.29 1009.88,95.71 1014.22,95.14 1018.55,94.58 1022.89,94.02 1027.23,93.46 1031.57,92.90 1035.90,92.35 1040.24,91.80 1044.58,91.25 1048.92,90.71 1053.25,90.17 1057.59,89.63 1061.93,89.10 1066.27,88.57 1070.60,88.04 1074.94,87.52 1079.28,86.99 1083.61,86.48 1087.95,85.96 1092.29,85.45 1096.63,84.94 1100.96,84.43 1105.30,83.93 1109.64,83.43 1113.98,82.93 1118.31,82.43 1122.65,81.94 1126.99,81.45 1131.33,80.96 1135.66,80.48 1140.00,80.00"/>
<polyline fill="none" stroke="#6a1b9a" stroke-width="2" points="60.00,360.00 64.34,358.71 68.67,357.42 73.01,356.14 77.35,354.85 81.69,353.57 86.02,352.28 90.36,351.00 94.70,349.72 99.04,348.44 103.37,347.16 107.71,345.88 112.05,344.60 116.39,343.32 120.72,342.04 125.06,340.77 129.40,339.49 133.73,338.21 138.07,336.94 142.41,335.66 146.75,334.38 151.08,333.11 155.42,331.83 159.76,330.56 164.10,329.29 168.43,328.01 172.77,326.74 177.11,325.46 181.45,324.19 185.78,322.92 190.12,321.65 194.46,320.37 198.80,319.10 203.13,317.83 207.47,316.56 211.81,315.29 216.14,314.02 220.48,312.75 224.82,311.48 229.16,310.21 233.49,308.94 237.83,307.67 242.17,306.41 246.51,305.14 250.84,303.87 255.18,302.60 259.52,301.34 263.86,300.07 268.19,298.81 272.53,297.54 276.87,296.28 281.20,295.02 285.54,293.75 289.88,292.49 294.22,291.23 298.55,289.97 302.89,288.71 307.23,287.45 311.57,286.19 315.90,284.93 320.24,283.67 324.58,282.42 328.92,281.16 333.25,279.91 337.59,278.65 341.93,277.40 346.27,276.15 350.60,274.90 354.94,273.64 359.28,272.39 363.61,271.15 367.95,269.90 372.29,268.65 376.63,267.41 380.96,266.16 385.30,264.92 389.64,263.67 393.98,262.43 398.31,261.19 402.65,259.95 406.99,258.71 411.33,257.48 415.66,256.24 420.00,255.01 424.34,253.77 428.67,252.54 433.01,251.31 437.35,250.08 441.69,248.85 446.02,247.63 450.36,246.40 454.70,245.18 459.04,243.96 463.37,242.74 467.71,241.52 472.05,240.30 476.39,239.08 480.72,237.87 485.06,236.65 489.40,235.44 493.73,234.23 498.07,233.02 502.41,231.81 506.75,230.61 511.08,229.41 515.42,228.20 519.76,227.00 524.10,225.80 528.43,224.61 532.77,223.41 537.11,222.22 541.45,221.03 545.78,219.84 550.12,218.65 554.46,217.46 558.80,216.28 563.13,215.10 567.47,213.92 571.81,212.74 576.14,211.56 580.48,210.39 584.82,209.22 589.16,208.05 593.49,206.88 597.83,205.71 602.17,204.55 606.51,203.38 610.84,202.22 615.18,201.07 619.52,199.91 623.86,198.76 628.19,197.61 632.53,196.46 636.87,195.31 641.20,194.16 645.54,193.02 649.88,191.88 654.22,190.74 658.55,189.61 662.89,188.47 667.23,187.34 671.57,186.21 675.90,185.09 680.24,183.96 684.58,182.84 688.92,181.72 693.25,180.60 697.59,179.49 701.93,178.37 706.27,177.26 710.60,176.16 714.94,175.05 719.28,173.95 723.61,172.85 727.95,171.75 732.29,170.66 736.63,169.56 740.96,168.47 745.30,167.38 749.64,166.30 753.98,165.22 758.31,164.14 762.65,163.06 766.99,161.98 771.33,160.91 775.66,159.84 780.00,158.78 784.34,157.71 788.67,156.65 793.01,155.59 797.35,154.53 801.69,153.48 806.02,152.43 810.36,151.38 814.70,150.33 819.04,149.29 823.37,148.25 827.71,147.21 832.05,146.18 836.39,145.15 840.72,144.12 845.06,143.09 849.40,142.07 853.73,141.04 858.07,140.03 862.41,139.01 866.75,138.00 871.08,136.99 875.42,135.98 879.76,134.98 884.10,133.97 888.43,132.98 892.77,131.98 897.11,130.99 901.45,130.00 905.78,129.01 910.12,128.02 914.46,127.04 918.80,126.06 923.13,125.09 927.47,124.11 931.81,123.14 936.14,122.18 940.48,121.21 944.82,120.25 949.16,119.29 953.49,118.34 957.83,117.38 962.17,116.43 966.51,115.49 970.84,114.54 975.18,113.60 979.52,112.66 983.86,111.73 988.19,110.79 992.53,109.86 996.87,108.94 1001.20,108.01 1005.54,107.09 1009.88,106.17 1014.22,105.26 1018.55,104.35 1022.89,103.44 1027.23,102.53 1031.57,101.63 1035.90,100.73 1040.24,99.83 1044.58,98.93 1048.92,98.04 1053.25,97.15 1057.59,96.27 1061.93,95.39 1066.27,94.51 1070.60,93.63 1074.94,92.76 1079.28,91.88 1083.61,91.02 1087.95,90.15 1092.29,89.29 1096.63,88.43 1100.96,87.57 1105.30,86.72 1109.64,85.87 1113.98,85.02 1118.31,84.18 1122.65,83.34 1126.99,82.50 1131.33,81.66 1135.66,80.83 1140.00,80.00"/>
<text x="70" y="98" font-family="monospace" font-size="14" fill="#222">Scenario A</text>
<text x="180" y="98" font-family="monospace" font-size="12" fill="#2f7d32">1 NFT/day cohort</text>
<text x="360" y="98" font-family="monospace" font-size="12" fill="#6a1b9a">3 NFTs/day cohort</text>
<rect x="60" y="460" width="1080" height="280" fill="none" stroke="#222" stroke-width="1"/>
<polyline fill="none" stroke="#2f7d32" stroke-width="2" points="60.00,740.00 64.34,737.58 68.67,735.18 73.01,732.81 77.35,730.46 81.69,728.14 86.02,725.84 90.36,723.56 94.70,721.30 99.04,719.06 103.37,716.85 107.71,714.66 112.05,712.48 116.39,710.33 120.72,708.20 125.06,706.08 129.40,703.99 133.73,701.91 138.07,699.85 142.41,697.81 146.75,695.78 151.08,693.77 155.42,691.78 159.76,689.81 164.10,687.85 168.43,685.91 172.77,683.99 177.11,682.08 181.45,680.18 185.78,678.30 190.12,676.44 194.46,674.59 198.80,672.75 203.13,670.93 207.47,669.12 211.81,667.33 216.14,665.55 220.48,663.78 224.82,662.03 229.16,660.29 233.49,658.56 237.83,656.85 242.17,655.15 246.51,653.46 250.84,651.78 255.18,650.12 259.52,648.47 263.86,646.83 268.19,645.20 272.53,643.58 276.87,641.97 281.20,640.38 285.54,638.80 289.88,637.23 294.22,635.66 298.55,634.11 302.89,632.57 307.23,631.05 311.57,629.53 315.90,628.02 320.24,626.52 324.58,625.03 328.92,623.56 333.25,622.09 337.59,620.63 341.93,619.18 346.27,617.74 350.60,616.32 354.94,614.90 359.28,613.49 363.61,612.09 367.95,610.70 372.29,609.31 376.63,607.94 380.96,606.58 385.30,605.22 389.64,603.87 393.98,602.54 398.31,601.21 402.65,599.89 406.99,598.57 411.33,597.27 415.66,595.97 420.00,594.69 424.34,593.41 428.67,592.14 433.01,590.87 437.35,589.62 441.69,588.37 446.02,587.13 450.36,585.90 454.70,584.68 459.04,583.46 463.37,582.25 467.71,581.05 472.05,579.86 476.39,578.67 480.72,577.50 485.06,576.32 489.40,575.16 493.73,574.00 498.07,572.85 502.41,571.71 506.75,570.58 511.08,569.45 515.42,568.33 519.76,567.21 524.10,566.10 528.43,565.00 532.77,563.91 537.11,562.82 541.45,561.74 545.78,560.66 550.12,559.59 554.46,558.53 558.80,557.48 563.13,556.43 567.47,555.38 571.81,554.35 576.14,553.32 580.48,552.29 584.82,551.28 589.16,550.26 593.49,549.26 597.83,548.26 602.17,547.27 606.51,546.28 610.84,545.30 615.18,544.32 619.52,543.35 623.86,542.39 628.19,541.43 632.53,540.47 636.87,539.53 641.20,538.58 645.54,537.65 649.88,536.72 654.22,535.79 658.55,534.87 662.89,533.96 667.23,533.05 671.57,532.15 675.90,531.25 680.24,530.36 684.58,529.47 688.92,528.59 693.25,527.71 697.59,526.84 701.93,525.97 706.27,525.11 710.60,524.25 714.94,523.40 719.28,522.55 723.61,521.71 727.95,520.88 732.29,520.04 736.63,519.22 740.96,518.40 745.30,517.58 749.64,516.77 753.98,515.96 758.31,515.15 762.65,514.36 766.99,513.56 771.33,512.77 775.66,511.99 780.00,511.21 784.34,510.43 788.67,509.66 793.01,508.90 797.35,508.13 801.69,507.38 806.02,506.62 810.36,505.88 814.70,505.13 819.04,504.39 823.37,503.66 827.71,502.92 832.05,502.20 836.39,501.47 840.72,500.76 845.06,500.04 849.40,499.33 853.73,498.62 858.07,497.92 862.41,497.22 866.75,496.53 871.08,495.84 875.42,495.15 879.76,494.47 884.10,493.79 888.43,493.12 892.77,492.45 897.11,491.78 901.45,491.12 905.78,490.46 910.12,489.81 914.46,489.15 918.80,488.51 923.13,487.86 927.47,487.22 931.81,486.59 936.14,485.95 940.48,485.33 944.82,484.70 949.16,484.08 953.49,483.46 957.83,482.85 962.17,482.24 966.51,481.63 970.84,481.02 975.18,480.42 979.52,479.83 983.86,479.23 988.19,478.64 992.53,478.06 996.87,477.47 1001.20,476.89 1005.54,476.32 1009.88,475.74 1014.22,475.17 1018.55,474.61 1022.89,474.04 1027.23,473.48 1031.57,472.93 1035.90,472.37 1040.24,471.82 1044.58,471.27 1048.92,470.73 1053.25,470.19 1057.59,469.65 1061.93,469.12 1066.27,468.58 1070.60,468.06 1074.94,467.53 1079.28,467.01 1083.61,466.49 1087.95,465.97 1092.29,465.46 1096.63,464.95 1100.96,464.44 1105.30,463.93 1109.64,463.43 1113.98,462.93 1118.31,462.44 1122.65,461.94 1126.99,461.45 1131.33,460.97 1135.66,460.48 1140.00,460.00"/>
<polyline fill="none" stroke="#6a1b9a" stroke-width="2" points="60.00,740.00 64.34,738.71 68.67,737.42 73.01,736.13 77.35,734.84 81.69,733.56 86.02,732.27 90.36,730.99 94.70,729.71 99.04,728.43 103.37,727.15 107.71,725.87 112.05,724.59 116.39,723.31 120.72,722.03 125.06,720.75 129.40,719.48 133.73,718.20 138.07,716.92 142.41,715.65 146.75,714.37 151.08,713.10 155.42,711.82 159.76,710.55 164.10,709.27 168.43,708.00 172.77,706.73 177.11,705.45 181.45,704.18 185.78,702.91 190.12,701.64 194.46,700.36 198.80,699.09 203.13,697.82 207.47,696.55 211.81,695.28 216.14,694.01 220.48,692.74 224.82,691.47 229.16,690.20 233.49,688.94 237.83,687.67 242.17,686.40 246.51,685.13 250.84,683.87 255.18,682.60 259.52,681.33 263.86,680.07 268.19,678.81 272.53,677.54 276.87,676.28 281.20,675.01 285.54,673.75 289.88,672.49 294.22,671.23 298.55,669.97 302.89,668.71 307.23,667.45 311.57,666.19 315.90,664.93 320.24,663.68 324.58,662.42 328.92,661.17 333.25,659.91 337.59,658.66 341.93,657.40 346.27,656.15 350.60,654.90 354.94,653.65 359.28,652.40 363.61,651.15 367.95,649.91 372.29,648.66 376.63,647.41 380.96,646.17 385.30,644.93 389.64,643.68 393.98,642.44 398.31,641.20 402.65,639.96 406.99,638.73 411.33,637.49 415.66,636.25 420.00,635.02 424.34,633.79 428.67,632.55 433.01,631.32 437.35,630.10 441.69,628.87 446.02,627.64 450.36,626.42 454.70,625.19 459.04,623.97 463.37,622.75 467.71,621.53 472.05,620.31 476.39,619.10 480.72,617.88 485.06,616.67 489.40,615.46 493.73,614.25 498.07,613.04 502.41,611.83 506.75,610.63 511.08,609.42 515.42,608.22 519.76,607.02 524.10,605.82 528.43,604.63 532.77,603.43 537.11,602.24 541.45,601.05 545.78,599.86 550.12,598.67 554.46,597.48 558.80,596.30 563.13,595.12 567.47,593.94 571.81,592.76 576.14,591.58 580.48,590.41 584.82,589.24 589.16,588.07 593.49,586.90 597.83,585.73 602.17,584.57 606.51,583.41 610.84,582.25 615.18,581.09 619.52,579.93 623.86,578.78 628.19,577.63 632.53,576.48 636.87,575.33 641.20,574.19 645.54,573.04 649.88,571.90 654.22,570.76 658.55,569.63 662.89,568.49 667.23,567.36 671.57,566.23 675.90,565.11 680.24,563.98 684.58,562.86 688.92,561.74 693.25,560.62 697.59,559.51 701.93,558.40 706.27,557.29 710.60,556.18 714.94,555.07 719.28,553.97 723.61,552.87 727.95,551.77 732.29,550.68 736.63,549.58 740.96,548.49 745.30,547.41 749.64,546.32 753.98,545.24 758.31,544.16 762.65,543.08 766.99,542.00 771.33,540.93 775.66,539.86 780.00,538.80 784.34,537.73 788.67,536.67 793.01,535.61 797.35,534.55 801.69,533.50 806.02,532.45 810.36,531.40 814.70,530.35 819.04,529.31 823.37,528.27 827.71,527.23 832.05,526.20 836.39,525.16 840.72,524.13 845.06,523.11 849.40,522.08 853.73,521.06 858.07,520.04 862.41,519.03 866.75,518.02 871.08,517.00 875.42,516.00 879.76,514.99 884.10,513.99 888.43,512.99 892.77,512.00 897.11,511.00 901.45,510.01 905.78,509.02 910.12,508.04 914.46,507.06 918.80,506.08 923.13,505.10 927.47,504.13 931.81,503.16 936.14,502.19 940.48,501.23 944.82,500.26 949.16,499.30 953.49,498.35 957.83,497.40 962.17,496.44 966.51,495.50 970.84,494.55 975.18,493.61 979.52,492.67 983.86,491.74 988.19,490.80 992.53,489.87 996.87,488.95 1001.20,488.02 1005.54,487.10 1009.88,486.18 1014.22,485.27 1018.55,484.35 1022.89,483.45 1027.23,482.54 1031.57,481.64 1035.90,480.73 1040.24,479.84 1044.58,478.94 1048.92,478.05 1053.25,477.16 1057.59,476.28 1061.93,475.39 1066.27,474.51 1070.60,473.63 1074.94,472.76 1079.28,471.89 1083.61,471.02 1087.95,470.16 1092.29,469.29 1096.63,468.43 1100.96,467.58 1105.30,466.72 1109.64,465.87 1113.98,465.02 1118.31,464.18 1122.65,463.34 1126.99,462.50 1131.33,461.66 1135.66,460.83 1140.00,460.00"/>
<text x="70" y="478" font-family="monospace" font-size="14" fill="#222">Scenario B</text>
<text x="180" y="478" font-family="monospace" font-size="12" fill="#2f7d32">1 NFT/day cohort</text>
<text x="360" y="478" font-family="monospace" font-size="12" fill="#6a1b9a">3 NFTs/day cohort</text>
<rect x="60" y="840" width="1080" height="280" fill="none" stroke="#222" stroke-width="1"/>
<polyline fill="none" stroke="#2f7d32" stroke-width="2" points="60.00,1120.00 64.34,1117.59 68.67,1115.21 73.01,1112.85 77.35,1110.52 81.69,1108.21 86.02,1105.92 90.36,1103.65 94.70,1101.40 99.04,1099.18 103.37,1096.97 107.71,1094.79 112.05,1092.62 116.39,1090.48 120.72,1088.35 125.06,1086.24 129.40,1084.15 133.73,1082.08 138.07,1080.03 142.41,1077.99 146.75,1075.97 151.08,1073.97 155.42,1071.99 159.76,1070.02 164.10,1068.07 168.43,1066.13 172.77,1064.21 177.11,1062.30 181.45,1060.41 185.78,1058.54 190.12,1056.68 194.46,1054.83 198.80,1053.00 203.13,1051.18 207.47,1049.38 211.81,1047.58 216.14,1045.81 220.48,1044.04 224.82,1042.29 229.16,1040.56 233.49,1038.83 237.83,1037.12 242.17,1035.42 246.51,1033.73 250.84,1032.06 255.18,1030.40 259.52,1028.75 263.86,1027.11 268.19,1025.48 272.53,1023.86 276.87,1022.26 281.20,1020.67 285.54,1019.08 289.88,1017.51 294.22,1015.95 298.55,1014.40 302.89,1012.87 307.23,1011.34 311.57,1009.82 315.90,1008.31 320.24,1006.81 324.58,1005.33 328.92,1003.85 333.25,1002.38 337.59,1000.93 341.93,999.48 346.27,998.04 350.60,996.61 354.94,995.19 359.28,993.78 363.61,992.38 367.95,990.99 372.29,989.61 376.63,988.23 380.96,986.87 385.30,985.51 389.64,984.17 393.98,982.83 398.31,981.50 402.65,980.18 406.99,978.86 411.33,977.56 415.66,976.26 420.00,974.98 424.34,973.70 428.67,972.42 433.01,971.16 437.35,969.90 441.69,968.66 446.02,967.42 450.36,966.18 454.70,964.96 459.04,963.74 463.37,962.53 467.71,961.33 472.05,960.14 476.39,958.95 480.72,957.77 485.06,956.60 489.40,955.43 493.73,954.27 498.07,953.12 502.41,951.98 506.75,950.84 511.08,949.71 515.42,948.59 519.76,947.47 524.10,946.36 528.43,945.26 532.77,944.16 537.11,943.07 541.45,941.99 545.78,940.91 550.12,939.85 554.46,938.78 558.80,937.72 563.13,936.67 567.47,935.63 571.81,934.59 576.14,933.56 580.48,932.53 584.82,931.51 589.16,930.50 593.49,929.49 597.83,928.49 602.17,927.50 606.51,926.51 610.84,925.52 615.18,924.55 619.52,923.57 623.86,922.61 628.19,921.65 632.53,920.69 636.87,919.74 641.20,918.80 645.54,917.86 649.88,916.93 654.22,916.00 658.55,915.08 662.89,914.17 667.23,913.25 671.57,912.35 675.90,911.45 680.24,910.56 684.58,909.67 688.92,908.78 693.25,907.90 697.59,907.03 701.93,906.16 706.27,905.30 710.60,904.44 714.94,903.58 719.28,902.74 723.61,901.89 727.95,901.05 732.29,900.22 736.63,899.39 740.96,898.57 745.30,897.75 749.64,896.93 753.98,896.12 758.31,895.32 762.65,894.52 766.99,893.72 771.33,892.93 775.66,892.15 780.00,891.36 784.34,890.59 788.67,889.81 793.01,889.04 797.35,888.28 801.69,887.52 806.02,886.77 810.36,886.02 814.70,885.27 819.04,884.53 823.37,883.79 827.71,883.06 832.05,882.33 836.39,881.60 840.72,880.88 845.06,880.17 849.40,879.45 853.73,878.74 858.07,878.04 862.41,877.34 866.75,876.64 871.08,875.95 875.42,875.26 879.76,874.58 884.10,873.90 888.43,873.22 892.77,872.55 897.11,871.88 901.45,871.22 905.78,870.56 910.12,869.90 914.46,869.25 918.80,868.60 923.13,867.95 927.47,867.31 931.81,866.67 936.14,866.04 940.48,865.41 944.82,864.78 949.16,864.16 953.49,863.54 957.83,862.92 962.17,862.31 966.51,861.70 970.84,861.09 975.18,860.49 979.52,859.89 983.86,859.30 988.19,858.70 992.53,858.12 996.87,857.53 1001.20,856.95 1005.54,856.37 1009.88,855.80 1014.22,855.22 1018.55,854.66 1022.89,854.09 1027.23,853.53 1031.57,852.97 1035.90,852.41 1040.24,851.86 1044.58,851.31 1048.92,850.77 1053.25,850.22 1057.59,849.68 1061.93,849.15 1066.27,848.61 1070.60,848.08 1074.94,847.56 1079.28,847.03 1083.61,846.51 1087.95,845.99 1092.29,845.48 1096.63,844.96 1100.96,844.45 1105.30,843.95 1109.64,843.44 1113.98,842.94 1118.31,842.45 1122.65,841.95 1126.99,841.46 1131.33,840.97 1135.66,840.48 1140.00,840.00"/>
<polyline fill="none" stroke="#6a1b9a" stroke-width="2" points="60.00,1120.00 64.34,1118.70 68.67,1117.41 73.01,1116.12 77.35,1114.83 81.69,1113.54 86.02,1112.26 90.36,1110.97 94.70,1109.69 99.04,1108.40 103.37,1107.12 107.71,1105.84 112.05,1104.56 116.39,1103.28 120.72,1102.00 125.06,1100.72 129.40,1099.45 133.73,1098.17 138.07,1096.89 142.41,1095.62 146.75,1094.34 151.08,1093.07 155.42,1091.79 159.76,1090.52 164.10,1089.24 168.43,1087.97 172.77,1086.70 177.11,1085.42 181.45,1084.15 185.78,1082.88 190.12,1081.61 194.46,1080.33 198.80,1079.06 203.13,1077.79 207.47,1076.52 211.81,1075.25 216.14,1073.98 220.48,1072.71 224.82,1071.45 229.16,1070.18 233.49,1068.91 237.83,1067.64 242.17,1066.38 246.51,1065.11 250.84,1063.84 255.18,1062.58 259.52,1061.31 263.86,1060.05 268.19,1058.78 272.53,1057.52 276.87,1056.26 281.20,1055.00 285.54,1053.73 289.88,1052.47 294.22,1051.21 298.55,1049.95 302.89,1048.69 307.23,1047.43 311.57,1046.18 315.90,1044.92 320.24,1043.66 324.58,1042.41 328.92,1041.15 333.25,1039.90 337.59,1038.65 341.93,1037.39 346.27,1036.14 350.60,1034.89 354.94,1033.64 359.28,1032.39 363.61,1031.15 367.95,1029.90 372.29,1028.65 376.63,1027.41 380.96,1026.16 385.30,1024.92 389.64,1023.68 393.98,1022.44 398.31,1021.20 402.65,1019.96 406.99,1018.73 411.33,1017.49 415.66,1016.25 420.00,1015.02 424.34,1013.79 428.67,1012.56 433.01,1011.33 437.35,1010.10 441.69,1008.87 446.02,1007.65 450.36,1006.42 454.70,1005.20 459.04,1003.98 463.37,1002.76 467.71,1001.54 472.05,1000.32 476.39,999.11 480.72,997.89 485.06,996.68 489.40,995.47 493.73,994.26 498.07,993.05 502.41,991.84 506.75,990.64 511.08,989.44 515.42,988.23 519.76,987.03 524.10,985.84 528.43,984.64 532.77,983.45 537.11,982.25 541.45,981.06 545.78,979.87 550.12,978.69 554.46,977.50 558.80,976.32 563.13,975.13 567.47,973.95 571.81,972.78 576.14,971.60 580.48,970.43 584.82,969.26 589.16,968.09 593.49,966.92 597.83,965.75 602.17,964.59 606.51,963.43 610.84,962.27 615.18,961.11 619.52,959.95 623.86,958.80 628.19,957.65 632.53,956.50 636.87,955.35 641.20,954.21 645.54,953.06 649.88,951.92 654.22,950.79 658.55,949.65 662.89,948.52 667.23,947.39 671.57,946.26 675.90,945.13 680.24,944.01 684.58,942.88 688.92,941.76 693.25,940.65 697.59,939.53 701.93,938.42 706.27,937.31 710.60,936.20 714.94,935.10 719.28,933.99 723.61,932.89 727.95,931.80 732.29,930.70 736.63,929.61 740.96,928.52 745.30,927.43 749.64,926.34 753.98,925.26 758.31,924.18 762.65,923.10 766.99,922.03 771.33,920.96 775.66,919.89 780.00,918.82 784.34,917.75 788.67,916.69 793.01,915.63 797.35,914.58 801.69,913.52 806.02,912.47 810.36,911.42 814.70,910.38 819.04,909.33 823.37,908.29 827.71,907.25 832.05,906.22 836.39,905.19 840.72,904.16 845.06,903.13 849.40,902.11 853.73,901.08 858.07,900.07 862.41,899.05 866.75,898.04 871.08,897.03 875.42,896.02 879.76,895.01 884.10,894.01 888.43,893.01 892.77,892.02 897.11,891.02 901.45,890.03 905.78,889.04 910.12,888.06 914.46,887.08 918.80,886.10 923.13,885.12 927.47,884.15 931.81,883.18 936.14,882.21 940.48,881.24 944.82,880.28 949.16,879.32 953.49,878.36 957.83,877.41 962.17,876.46 966.51,875.51 970.84,874.57 975.18,873.63 979.52,872.69 983.86,871.75 988.19,870.82 992.53,869.89 996.87,868.96 1001.20,868.03 1005.54,867.11 1009.88,866.19 1014.22,865.28 1018.55,864.37 1022.89,863.46 1027.23,862.55 1031.57,861.65 1035.90,860.74 1040.24,859.85 1044.58,858.95 1048.92,858.06 1053.25,857.17 1057.59,856.28 1061.93,855.40 1066.27,854.52 1070.60,853.64 1074.94,852.77 1079.28,851.90 1083.61,851.03 1087.95,850.16 1092.29,849.30 1096.63,848.44 1100.96,847.58 1105.30,846.73 1109.64,845.88 1113.98,845.03 1118.31,844.18 1122.65,843.34 1126.99,842.50 1131.33,841.66 1135.66,840.83 1140.00,840.00"/>
<text x="70" y="858" font-family="monospace" font-size="14" fill="#222">Scenario C</text>
<text x="180" y="858" font-family="monospace" font-size="12" fill="#2f7d32">1 NFT/day cohort</text>
<text x="360" y="858" font-family="monospace" font-size="12" fill="#6a1b9a">3 NFTs/day cohort</text>
<text x="600.0" y="1184" text-anchor="middle" font-family="monospace" font-size="12" fill="#333">Y-axis: cumulative REL per user, X-axis: day</text>
</svg>